<svg width="48" height="93" viewBox="0 0 48 93" fill="none" xmlns="http://www.w3.org/2000/svg">
<path d="M32.343 22.408C33.1537 22.7493 33.9857 23.1973 34.839 23.752C35.6923 24.264 36.4817 24.7973 37.207 25.352C37.9323 25.9067 38.5297 26.4613 38.999 27.016C39.511 27.528 39.7883 27.9547 39.831 28.296C39.1057 28.1253 38.3803 28.0187 37.655 27.976C36.9297 27.8907 36.2683 27.848 35.671 27.848C33.751 27.848 31.831 28.3173 29.911 29.256C28.0337 30.1947 26.2417 31.4747 24.535 33.096C22.8283 34.7173 21.2497 36.616 19.799 38.792C18.3483 40.968 17.0897 43.2933 16.023 45.768C14.999 48.2427 14.1883 50.8027 13.591 53.448C12.9937 56.0933 12.695 58.696 12.695 61.256C12.695 64.584 13.2497 67.0587 14.359 68.68C15.4683 70.3013 17.0897 71.112 19.223 71.112C20.247 71.112 21.3563 70.8987 22.551 70.472C23.7457 70.088 24.9617 69.5333 26.199 68.808C27.4363 68.0827 28.6523 67.208 29.847 66.184C31.0417 65.16 32.151 64.0293 33.175 62.792C34.6683 61 36.0123 58.9733 37.207 56.712C38.4017 54.408 39.4043 51.976 40.215 49.416C41.0683 46.856 41.7083 44.232 42.135 41.544C42.6043 38.8133 42.839 36.1467 42.839 33.544C42.839 32.52 42.8177 31.6667 42.775 30.984C42.7323 30.2587 42.6683 29.6613 42.583 29.192C42.5403 28.68 42.4977 28.2747 42.455 27.976C42.4123 27.6773 42.3697 27.4213 42.327 27.208C42.839 27.464 43.3937 27.784 43.991 28.168C44.631 28.5093 45.207 29.0427 45.719 29.768C46.2737 30.4507 46.7217 31.368 47.063 32.52C47.447 33.672 47.639 35.1653 47.639 37C47.639 39.9867 47.2763 42.9307 46.551 45.832C45.8683 48.6907 44.887 51.4213 43.607 54.024C42.3697 56.6267 40.8977 59.0587 39.191 61.32C37.4843 63.5813 35.6497 65.5653 33.687 67.272C31.127 69.5333 28.3963 71.2827 25.495 72.52C22.5937 73.7573 19.799 74.376 17.111 74.376C13.1857 74.376 10.1777 73.1173 8.087 70.6C6.039 68.1253 5.015 64.456 5.015 59.592C5.015 56.9893 5.29233 54.2373 5.847 51.336C6.44433 48.4347 7.255 45.576 8.279 42.76C9.34567 39.944 10.6043 37.2773 12.055 34.76C13.5057 32.2 15.0843 29.96 16.791 28.04C18.5403 26.0773 20.3963 24.52 22.359 23.368C24.3643 22.216 26.4123 21.64 28.503 21.64C29.1857 21.64 29.8257 21.704 30.423 21.832C31.0203 21.9173 31.6603 22.1093 32.343 22.408Z" fill="white"/>
</svg>
