<svg width="178" height="45" viewBox="0 0 178 45" fill="none" xmlns="http://www.w3.org/2000/svg">
<mask id="mask0_291_211" style="mask-type:luminance" maskUnits="userSpaceOnUse" x="0" y="0" width="178" height="45">
<path d="M177.149 0H0V44.0122H177.149V0Z" fill="white"/>
</mask>
<g mask="url(#mask0_291_211)">
<path fill-rule="evenodd" clip-rule="evenodd" d="M17.4903 2.25191L15.4807 0.118961C18.9551 -0.328834 28.1227 0.245397 36.9973 6.12468C37.1127 6.93669 37.0878 7.74614 37.0878 7.74614L37.7418 8.10025L37.7455 8.10586L37.7469 8.09754L37.7601 8.10562C38.1269 8.73573 38.4977 9.67522 38.7347 10.7807C39.0213 12.1182 39.1029 13.6581 38.7688 15.1306C38.4321 16.6143 37.793 17.8388 37.1673 18.7345C36.7049 19.3963 36.264 19.859 35.9743 20.1122C34.8407 20.1363 32.7303 20.8968 32.1271 23.534C30.3091 24.5747 27.4549 25.6149 23.6851 25.6149C20.084 25.6149 16.4106 24.5717 13.6491 22.5514C10.8989 20.5391 9.05176 17.5606 9.05176 13.639C9.05176 10.5196 10.4493 8.08285 12.2217 6.29077C14 4.49284 16.4308 3.03614 17.8406 2.55266L17.4903 2.25191ZM33.0632 7.36893C32.3645 8.13071 31.7113 8.49619 31.5248 8.59531C27.4449 7.68689 25.975 5.47753 25.975 5.47753C29.8233 5.45269 33.2967 6.4108 35.838 8.03159C35.838 8.03159 34.4624 7.56496 33.0632 7.36893Z" fill="white"/>
<path d="M15.4237 2.83978C6.67611 4.60208 -0.00012207 12.4817 -0.00012207 22.0101C-0.00012207 34.0566 10.1666 44.0102 22.7078 44.0102C32.0726 44.0102 39.8679 38.2754 43.9439 30.6027C38.5231 31.8902 32.0511 29.6009 32.0097 24.5969C30.0584 25.6015 27.2487 26.4932 23.6852 26.4932C19.9294 26.4932 16.0664 25.4082 13.1308 23.2603C10.1839 21.1042 8.17294 17.8748 8.17294 13.6371C8.17294 10.2293 9.70635 7.58142 11.5975 5.66938C12.6915 4.57356 14.1915 3.53361 15.4237 2.83978Z" fill="white"/>
<path d="M39.5935 10.5954C39.4749 10.0422 39.3233 9.51913 39.151 9.0437C41.5026 10.8037 43.3341 13.2056 43.1814 16.5525C42.9616 21.3727 40.0545 23.2692 38.1932 23.5854C39.0866 22.084 38.342 21.1358 38.0444 20.8196C37.8994 20.6658 37.6003 20.4068 37.0865 20.2452C37.3407 19.9663 37.6147 19.6282 37.887 19.2386C38.5649 18.2681 39.2588 16.9399 39.6254 15.3251C39.9942 13.6992 39.9 12.0262 39.5935 10.5954Z" fill="white"/>
<path d="M126.635 11.2922C129.852 11.2922 131.874 12.2032 133.788 13.8377L131.714 16.3296C130.278 15.097 128.843 14.3467 126.502 14.3467C123.098 14.3467 120.465 17.3478 120.465 20.9383L120.468 21.1614C120.54 24.9332 123.048 27.6906 126.794 27.6906C128.576 27.6906 130.145 27.1279 131.288 26.2705V22.7871L134.453 19.8933V27.7709C132.59 29.3519 129.986 30.6915 126.688 30.6915C120.865 30.6915 117.036 26.5116 117.036 21.0455L117.037 20.8209C117.122 15.6439 121.058 11.2922 126.635 11.2922ZM147.694 11.2922C153.411 11.2922 157.4 15.6598 157.4 20.9383L157.398 21.161C157.313 26.3389 153.297 30.6915 147.641 30.6915C141.924 30.6915 137.935 26.324 137.935 21.0455L137.937 20.8228C138.022 15.645 142.038 11.2922 147.694 11.2922ZM65.2622 11.4797L73.4521 30.3701L70.1228 30.37L63.6933 15.4185L57.3108 30.37L54.0408 30.3701L62.2308 11.4797H65.2622ZM107.446 11.4797L115.636 30.3701L112.307 30.37L105.877 15.4185L99.4946 30.37L96.2246 30.3701L104.414 11.4797H107.446ZM163.959 11.6137L173.932 24.5824V11.6137H177.149V30.3701H174.41L164.146 17.0263V30.3701H160.927V11.6137H163.959ZM147.641 14.3467C143.944 14.3467 141.364 17.2943 141.364 20.9383L141.367 21.1522C141.441 24.7235 144.025 27.6371 147.694 27.6371C151.389 27.6371 153.968 24.6895 153.968 21.0455V20.8316C153.891 17.2601 151.308 14.3467 147.641 14.3467Z" fill="white"/>
<path d="M85.7101 11.2922C88.0544 11.2922 89.8929 12.0003 91.0917 13.1987C92.0775 14.2609 92.637 15.65 92.637 17.3115L92.6363 17.4676C92.5977 20.4714 90.85 22.3039 88.3817 23.0887L88.2144 23.14L93.2498 30.3578H89.3599L84.7776 23.7121L82.3721 23.7115L84.06 20.7426L85.4702 20.7433C87.7614 20.7433 89.2383 19.5727 89.3043 17.6891L89.3067 17.5565L89.306 17.4295C89.2734 15.4067 87.8658 14.3427 85.4435 14.3427H80.6745L80.674 20.2363L80.6715 20.2361V24.4876L80.674 24.4863L80.6745 30.3578H77.3975V11.2922H85.7101Z" fill="white"/>
</g>
</svg>
