<svg width="204" height="37" viewBox="0 0 204 37" fill="none" xmlns="http://www.w3.org/2000/svg">
<path d="M11.4073 28.5782C9.48607 28.5782 8.00513 28.2313 6.96447 27.5375C5.95049 26.8437 5.19 26.0699 4.68301 25.216H4.04261V28.0178H3.00313e-05V-3.05188e-05H4.12266V10.967H4.76306C5.08327 10.4333 5.51021 9.9263 6.04388 9.44599C6.57755 8.939 7.28467 8.5254 8.16523 8.2052C9.04579 7.88499 10.1265 7.72489 11.4073 7.72489C13.0617 7.72489 14.5827 8.12515 15.9702 8.92566C17.3578 9.72617 18.4651 10.8869 19.2923 12.4079C20.1195 13.9288 20.5331 15.7433 20.5331 17.8513V18.4517C20.5331 20.5864 20.1062 22.4143 19.2523 23.9352C18.4251 25.4295 17.3177 26.5769 15.9302 27.3774C14.5693 28.1779 13.0617 28.5782 11.4073 28.5782ZM10.2065 24.9759C11.9943 24.9759 13.4619 24.4022 14.6093 23.2548C15.7834 22.1074 16.3705 20.4663 16.3705 18.3317V17.9714C16.3705 15.8634 15.7968 14.2357 14.6494 13.0883C13.502 11.9409 12.021 11.3672 10.2065 11.3672C8.44541 11.3672 6.97781 11.9409 5.80373 13.0883C4.65633 14.2357 4.08263 15.8634 4.08263 17.9714V18.3317C4.08263 20.4663 4.65633 22.1074 5.80373 23.2548C6.97781 24.4022 8.44541 24.9759 10.2065 24.9759ZM34.3125 28.5782C32.3113 28.5782 30.5635 28.1646 29.0692 27.3374C27.5749 26.4835 26.4008 25.2961 25.547 23.7751C24.7198 22.2275 24.3062 20.4397 24.3062 18.4117V17.9314C24.3062 15.8768 24.7198 14.0889 25.547 12.568C26.3742 11.0203 27.5215 9.8329 28.9892 9.00571C30.4834 8.15183 32.2045 7.72489 34.1524 7.72489C36.047 7.72489 37.7014 8.15183 39.1156 9.00571C40.5565 9.8329 41.6772 10.9936 42.4777 12.4879C43.2783 13.9822 43.6785 15.73 43.6785 17.7313V19.2923H28.5088C28.5622 21.0267 29.1359 22.4143 30.2299 23.4549C31.3507 24.4689 32.7382 24.9759 34.3926 24.9759C35.9402 24.9759 37.101 24.629 37.8748 23.9352C38.6753 23.2414 39.289 22.4409 39.716 21.5337L43.1182 23.2948C42.7446 24.042 42.1976 24.8291 41.4771 25.6563C40.7833 26.4835 39.8627 27.1773 38.7153 27.7376C37.5679 28.298 36.1003 28.5782 34.3125 28.5782ZM28.5489 16.1302H39.4758C39.3691 14.636 38.8354 13.4752 37.8748 12.648C36.9142 11.7942 35.6601 11.3672 34.1124 11.3672C32.5648 11.3672 31.2973 11.7942 30.31 12.648C29.3494 13.4752 28.7623 14.636 28.5489 16.1302ZM48.2665 28.0178V8.28525H52.309V10.6067H52.9494C53.2696 9.77953 53.7766 9.17915 54.4704 8.80558C55.1909 8.40533 56.0714 8.2052 57.1121 8.2052H59.4736V11.9276H56.952C55.6178 11.9276 54.5238 12.3011 53.6699 13.0483C52.816 13.7687 52.3891 14.8895 52.3891 16.4104V28.0178H48.2665ZM63.3705 28.0178V8.28525H67.4131V10.6067H68.0535C68.3737 9.77953 68.8807 9.17915 69.5744 8.80558C70.2949 8.40533 71.1755 8.2052 72.2161 8.2052H74.5776V11.9276H72.056C70.7218 11.9276 69.6278 12.3011 68.7739 13.0483C67.92 13.7687 67.4931 14.8895 67.4931 16.4104V28.0178H63.3705ZM80.756 36.0229V32.4206H91.763C92.5101 32.4206 92.8837 32.0204 92.8837 31.2199V25.136H92.2433C92.0031 25.6697 91.6296 26.19 91.1226 26.697C90.6423 27.1773 89.9885 27.5775 89.1613 27.8977C88.3341 28.2179 87.2935 28.3781 86.0393 28.3781C84.545 28.3781 83.2109 28.0445 82.0368 27.3774C80.8627 26.7103 79.9421 25.7631 79.275 24.5356C78.6079 23.3082 78.2744 21.8539 78.2744 20.1728V8.28525H82.397V19.8526C82.397 21.5604 82.8239 22.8278 83.6778 23.655C84.5317 24.4556 85.7191 24.8558 87.2401 24.8558C88.9212 24.8558 90.2687 24.2955 91.2827 23.1747C92.3233 22.054 92.8437 20.4263 92.8437 18.2916V8.28525H96.9663V32.0604C96.9663 33.2612 96.6061 34.2218 95.8856 34.9422C95.1918 35.6627 94.2312 36.0229 93.0038 36.0229H80.756ZM114.093 28.5782C112.172 28.5782 110.691 28.2313 109.65 27.5375C108.636 26.8437 107.876 26.0699 107.369 25.216H106.728V28.0178H102.686V-3.05188e-05H106.809V10.967H107.449C107.769 10.4333 108.196 9.9263 108.73 9.44599C109.263 8.939 109.971 8.5254 110.851 8.2052C111.732 7.88499 112.812 7.72489 114.093 7.72489C115.748 7.72489 117.269 8.12515 118.656 8.92566C120.044 9.72617 121.151 10.8869 121.978 12.4079C122.805 13.9288 123.219 15.7433 123.219 17.8513V18.4517C123.219 20.5864 122.792 22.4143 121.938 23.9352C121.111 25.4295 120.004 26.5769 118.616 27.3774C117.255 28.1779 115.748 28.5782 114.093 28.5782ZM112.892 24.9759C114.68 24.9759 116.148 24.4022 117.295 23.2548C118.469 22.1074 119.056 20.4663 119.056 18.3317V17.9714C119.056 15.8634 118.483 14.2357 117.335 13.0883C116.188 11.9409 114.707 11.3672 112.892 11.3672C111.131 11.3672 109.664 11.9409 108.49 13.0883C107.342 14.2357 106.768 15.8634 106.768 17.9714V18.3317C106.768 20.4663 107.342 22.1074 108.49 23.2548C109.664 24.4022 111.131 24.9759 112.892 24.9759ZM127.953 28.0178V-3.05188e-05H132.075V28.0178H127.953ZM147.065 28.5782C145.09 28.5782 143.329 28.1779 141.781 27.3774C140.261 26.5502 139.06 25.3761 138.179 23.8552C137.299 22.3342 136.858 20.5331 136.858 18.4517V17.8513C136.858 15.77 137.299 13.9822 138.179 12.4879C139.06 10.967 140.261 9.79288 141.781 8.96568C143.329 8.13849 145.09 7.72489 147.065 7.72489C149.039 7.72489 150.801 8.13849 152.348 8.96568C153.896 9.79288 155.11 10.967 155.991 12.4879C156.871 13.9822 157.311 15.77 157.311 17.8513V18.4517C157.311 20.5331 156.871 22.3342 155.991 23.8552C155.11 25.3761 153.896 26.5502 152.348 27.3774C150.801 28.1779 149.039 28.5782 147.065 28.5782ZM147.065 24.8958C148.879 24.8958 150.347 24.3221 151.468 23.1747C152.615 22.0007 153.189 20.3863 153.189 18.3317V17.9714C153.189 15.9168 152.628 14.3158 151.508 13.1684C150.387 11.9943 148.906 11.4072 147.065 11.4072C145.277 11.4072 143.809 11.9943 142.662 13.1684C141.541 14.3158 140.981 15.9168 140.981 17.9714V18.3317C140.981 20.3863 141.541 22.0007 142.662 23.1747C143.809 24.3221 145.277 24.8958 147.065 24.8958ZM171.235 28.5782C169.341 28.5782 167.62 28.1779 166.072 27.3774C164.551 26.5769 163.337 25.4162 162.43 23.8952C161.549 22.3742 161.109 20.5464 161.109 18.4117V17.8914C161.109 15.7567 161.549 13.9422 162.43 12.4479C163.337 10.9269 164.551 9.76619 166.072 8.96568C167.62 8.13849 169.341 7.72489 171.235 7.72489C173.13 7.72489 174.744 8.07178 176.078 8.76555C177.413 9.45933 178.48 10.3799 179.28 11.5273C180.108 12.6747 180.641 13.9422 180.881 15.3297L176.879 16.1703C176.745 15.2897 176.465 14.4892 176.038 13.7687C175.611 13.0483 175.011 12.4746 174.237 12.0476C173.463 11.6207 172.489 11.4072 171.315 11.4072C170.168 11.4072 169.127 11.6741 168.193 12.2077C167.286 12.7147 166.566 13.4619 166.032 14.4492C165.498 15.4098 165.231 16.5839 165.231 17.9714V18.3317C165.231 19.7192 165.498 20.9066 166.032 21.8939C166.566 22.8812 167.286 23.6284 168.193 24.1353C169.127 24.6423 170.168 24.8958 171.315 24.8958C173.05 24.8958 174.371 24.4556 175.278 23.575C176.185 22.6677 176.759 21.5203 176.999 20.1328L181.001 21.0534C180.681 22.4143 180.108 23.6684 179.28 24.8158C178.48 25.9632 177.413 26.8838 176.078 27.5775C174.744 28.2446 173.13 28.5782 171.235 28.5782ZM185.382 28.0178V-3.05188e-05H189.504V15.9701H190.145L197.91 8.28525H203.393L193.427 17.8513L203.713 28.0178H198.27L190.145 19.8126H189.504V28.0178H185.382Z" fill="white"/>
</svg>
