<svg width="200" height="59" viewBox="0 0 200 59" fill="none" xmlns="http://www.w3.org/2000/svg">
<g clip-path="url(#clip0_291_222)">
<path d="M4.6497 42.0689C3.88677 42.4394 2.95314 42.1443 2.60816 41.3904C0.739423 37.306 -0.148402 32.8595 0.0202252 28.3848C0.207615 23.4121 1.69357 18.5655 4.3402 14.2951C6.98683 10.0247 10.7084 6.46854 15.1595 3.9567C19.1649 1.69644 23.1396 0.34773 27.7526 0.00425241C28.604 -0.0591696 29.5211 0.595019 29.5438 1.41896V2.11637C29.5664 2.94038 29.0943 3.48404 28.2433 3.55316C24.2492 3.8772 20.4851 5.05811 17.0139 7.01694C13.0969 9.22728 9.82185 12.3567 7.49285 16.1147C5.1638 19.8727 3.85617 24.1376 3.69126 28.5135C3.54513 32.3914 4.30063 36.2453 5.89427 39.7943C6.23386 40.5507 5.93108 41.4465 5.16816 41.817L4.6497 42.0689Z" fill="#4492EC"/>
<path d="M56.5749 42.0689C57.3377 42.4394 58.2714 42.1443 58.6164 41.3904C60.4852 37.306 61.373 32.8595 61.2043 28.3848C61.017 23.4121 59.5309 18.5655 56.8843 14.2951C54.2377 10.0247 50.5161 6.46854 46.065 3.9567C42.0596 1.69644 37.5802 0.34773 32.9672 0.00425241C32.1156 -0.0591696 31.4046 0.595019 31.382 1.41896L31.3665 1.97892C31.344 2.80285 32.0186 3.48404 32.8696 3.55316C36.8637 3.8772 40.7395 5.05811 44.2108 7.01694C48.1277 9.22728 51.4027 12.3567 53.7317 16.1147C56.0608 19.8727 57.3684 24.1376 57.5333 28.5135C57.6795 32.3914 56.9239 36.2453 55.3302 39.7943C54.9906 40.5507 55.2934 41.4465 56.0564 41.817L56.5749 42.0689Z" fill="#3CD583"/>
<path d="M5.52211 43.6188C4.78482 44.0349 4.53341 44.9513 5.00127 45.6409C7.63814 49.5274 11.1922 52.7651 15.3802 55.0836C20.0163 57.6499 25.2677 59.0001 30.6125 59.0001C35.957 59.0001 41.2085 57.6496 45.8444 55.0831C50.0325 52.7647 53.5864 49.5268 56.2232 45.6403C56.691 44.9506 56.4395 44.0342 55.7023 43.6181L55.2013 43.3353C54.4639 42.9192 53.5204 43.1614 53.0476 43.848C50.738 47.2017 47.6482 49.9978 44.0166 52.0082C39.9369 54.2667 35.3155 55.4551 30.6123 55.4551C25.9091 55.4551 21.2877 54.2668 17.2082 52.0086C13.5764 49.9982 10.4865 47.2022 8.1768 43.8486C7.70399 43.1622 6.76044 42.9198 6.02314 43.3361L5.52211 43.6188Z" fill="#4492EC"/>
<path d="M22.2117 14.0444C21.6246 13.5417 21.4968 12.6821 21.9118 12.0294C22.4172 11.2345 23.5067 11.0714 24.2215 11.6836L30.4667 17.0326L36.9677 11.5855C37.6836 10.9857 38.7619 11.1531 39.2636 11.9419C39.6818 12.5998 39.5481 13.4668 38.9511 13.967L30.4437 21.0952L22.2117 14.0444Z" fill="url(#paint0_linear_291_222)"/>
<path d="M9.92762 33.3841C9.33387 32.8832 9.20204 32.0185 9.61924 31.3623C10.1221 30.5716 11.2042 30.4055 11.9197 31.0095L30.4575 46.6538L49.2136 30.8518C49.9293 30.2488 51.0105 30.4152 51.5131 31.2055C51.9305 31.862 51.7983 32.7273 51.2037 33.2282L30.4559 50.7084L9.92762 33.3841Z" fill="url(#paint1_linear_291_222)"/>
<path d="M13.9846 27.012C13.3875 26.5116 13.2536 25.6446 13.672 24.9868C14.1735 24.198 15.2518 24.0304 15.9678 24.6301L30.4561 36.7666L45.1558 24.4617C45.8718 23.8624 46.9496 24.0301 47.4511 24.8186C47.8694 25.4766 47.7355 26.3441 47.138 26.8441L30.4553 40.8088L13.9846 27.012Z" fill="url(#paint2_linear_291_222)"/>
<path d="M18.1117 20.6352C17.489 20.1098 17.3508 19.2032 17.7883 18.5149C18.2848 17.7342 19.3309 17.5245 20.0677 18.0825C23.6842 20.8218 27.0231 24.1006 30.4606 27.0021L41.1073 18.0934C41.8233 17.4942 42.9011 17.6621 43.4024 18.4505C43.8209 19.1086 43.6868 19.9761 43.0892 20.4761L30.4517 31.0507L18.1117 20.6352Z" fill="url(#paint3_linear_291_222)"/>
<path d="M94.5861 27.2152C93.7578 27.2513 92.8758 27.2695 91.9394 27.2695C91.003 27.2695 90.1209 27.2513 89.2927 27.2152C89.0765 26.8901 88.8781 26.565 88.6984 26.2399C88.5537 25.9148 88.3742 25.6079 88.1578 25.3188C87.4734 24.4158 86.6093 23.6572 85.5649 23.0432C84.5561 22.429 83.3497 22.0679 81.9452 21.9593C81.585 21.9232 81.2249 21.9232 80.8647 21.9593C78.6318 22.14 76.7774 22.9889 75.3008 24.5061C73.8242 25.9871 72.9959 27.8654 72.8158 30.1412C72.7437 31.5138 72.9778 32.76 73.518 33.8798C74.0943 34.9635 74.7425 35.8665 75.4628 36.589C76.1471 37.2754 76.9755 37.8533 77.9481 38.3228C78.9562 38.7925 80.0909 39.0453 81.3509 39.0814C82.3596 39.0814 83.2961 38.9189 84.1602 38.5938C85.0608 38.2326 85.8347 37.7991 86.4834 37.2934C87.1678 36.7877 87.7255 36.2098 88.1578 35.5596C88.6261 34.9094 89.0399 34.1869 89.4008 33.3922C90.2292 33.3199 91.1111 33.2838 92.0475 33.2838C92.9839 33.2838 93.8659 33.3199 94.6943 33.3922C94.3342 35.0177 93.8122 36.3903 93.1278 37.5101C92.4434 38.6299 91.5793 39.6595 90.5347 40.5986C89.3105 41.6823 87.8702 42.5853 86.2134 43.3077C84.5561 44.0302 82.5036 44.3012 80.0543 44.1206C78.362 44.0122 76.8134 43.5968 75.4089 42.8744C74.0042 42.1157 72.7797 41.2488 71.7353 40.2735C71.1231 39.6955 70.5468 39.0273 70.0067 38.2687C69.4664 37.4741 68.9983 36.6071 68.6021 35.6678C68.2419 34.6926 67.9718 33.645 67.7918 32.5252C67.6477 31.4054 67.6477 30.1953 67.7918 28.8949C67.9718 27.1611 68.404 25.6439 69.0883 24.3435C69.8086 23.007 70.637 21.8691 71.5733 20.9299C72.4375 20.0268 73.392 19.2683 74.4364 18.6542C75.5168 18.0401 76.7593 17.5525 78.1636 17.1912C78.7765 17.0468 79.5325 16.9384 80.4331 16.8662C81.333 16.7939 82.1978 16.7939 83.0262 16.8662C84.5747 17.0107 85.9795 17.4079 87.2393 18.0583C88.5002 18.7084 89.5983 19.4489 90.5347 20.2797C91.5436 21.2189 92.3897 22.2484 93.0742 23.3681C93.7578 24.4879 94.2625 25.7703 94.5861 27.2152Z" fill="#4492EC"/>
<path d="M109.214 17.1911C110.439 17.0467 111.609 17.0467 112.726 17.1911C113.842 17.3357 114.869 17.5885 115.805 17.9497C116.741 18.3109 117.606 18.7624 118.398 19.3042C119.191 19.8461 119.892 20.424 120.505 21.0382C121.729 22.2663 122.738 23.8015 123.53 25.6438C124.358 27.4499 124.647 29.6354 124.395 32.2C124.214 33.8617 123.764 35.3608 123.044 36.6973C122.324 38.0338 121.477 39.1897 120.505 40.165C119.532 41.1764 118.38 42.0434 117.047 42.7659C115.715 43.4522 114.202 43.8857 112.51 44.0662C111.249 44.2106 110.078 44.2106 108.998 44.0662C107.918 43.8857 106.91 43.6147 105.973 43.2535C105.037 42.8561 104.191 42.4046 103.434 41.8989C102.678 41.3569 101.994 40.7792 101.381 40.165C100.805 39.5871 100.247 38.9188 99.7069 38.1602C99.2022 37.4016 98.7518 36.5709 98.3559 35.6677C97.9959 34.7286 97.726 33.7172 97.5456 32.6335C97.4016 31.5137 97.4016 30.3036 97.5456 29.0031C97.726 27.2694 98.1577 25.7702 98.8421 24.5059C99.5622 23.2056 100.391 22.0858 101.327 21.1465C102.084 20.388 102.894 19.7377 103.758 19.1959C104.622 18.6179 105.613 18.1303 106.729 17.733C107.089 17.6245 107.468 17.5344 107.864 17.4621C108.26 17.3537 108.71 17.2634 109.214 17.1911ZM105.379 24.3434C104.766 24.8852 104.226 25.5174 103.758 26.2398C103.29 26.9623 102.948 27.8111 102.732 28.7864C102.66 29.1476 102.588 29.5089 102.515 29.8701C102.48 30.2313 102.48 30.5925 102.515 30.9538C102.66 33.0127 103.344 34.7466 104.569 36.1553C105.793 37.5641 107.324 38.4673 109.161 38.8646C109.484 38.9369 109.826 38.991 110.186 39.0272C110.547 39.0633 110.925 39.0813 111.321 39.0813C112.402 39.009 113.41 38.7562 114.347 38.3227C115.283 37.8894 116.111 37.3293 116.832 36.643C117.552 35.9205 118.128 35.0718 118.56 34.0964C119.028 33.1211 119.298 32.0554 119.37 30.8996V30.2493C119.298 28.8768 118.974 27.7027 118.398 26.7274C117.822 25.7522 117.173 24.9394 116.453 24.2891C115.733 23.6389 114.833 23.0972 113.752 22.6637C112.708 22.2302 111.591 22.0858 110.403 22.2302C109.25 22.3747 108.278 22.6094 107.485 22.9346C106.729 23.2597 106.027 23.7294 105.379 24.3434Z" fill="#9C9C9C"/>
<path d="M153.504 28.1368C152.676 28.2089 151.812 28.2451 150.912 28.2451C150.047 28.2089 149.184 28.191 148.319 28.191C147.671 26.421 146.716 24.976 145.455 23.8564C144.231 22.7364 142.557 22.1044 140.432 21.9598C139.387 21.8875 138.343 22.0501 137.298 22.4474C136.29 22.8087 135.425 23.2963 134.705 23.9105C133.841 24.6689 133.157 25.5541 132.653 26.5654C132.148 27.5769 131.806 28.787 131.626 30.1958C131.518 31.2795 131.482 32.4173 131.518 33.6094C131.59 34.7653 131.626 35.9211 131.626 37.0771V44.0127C130.834 44.0848 130.005 44.121 129.141 44.121C128.277 44.0848 127.431 44.0668 126.602 44.0668V32.4714C126.602 31.8212 126.584 31.171 126.548 30.5209C126.512 29.8707 126.53 29.2566 126.602 28.6786C126.674 27.7395 126.89 26.8363 127.25 25.9695C127.61 25.0663 127.989 24.2717 128.385 23.5854C129.213 22.1405 130.257 20.8941 131.518 19.8467C132.815 18.7992 134.327 17.9863 136.056 17.4084C136.74 17.1917 137.587 17.0292 138.595 16.9208C139.604 16.8124 140.629 16.7944 141.674 16.8665C143.295 17.0472 144.771 17.4807 146.104 18.167C147.472 18.8533 148.625 19.666 149.562 20.6052C150.571 21.5806 151.399 22.6823 152.046 23.9105C152.731 25.1386 153.216 26.5474 153.504 28.1368ZM183.372 44.2835H178.456C178.384 43.8861 178.366 43.4346 178.401 42.9289C178.438 42.3871 178.421 41.9174 178.349 41.5201C177.844 41.8092 177.34 42.1161 176.835 42.4412C176.368 42.7302 175.863 43.0011 175.322 43.2541C174.459 43.6513 173.45 43.9584 172.297 44.1751C171.181 44.3558 169.957 44.3919 168.625 44.2835C166.931 44.1389 165.4 43.7236 164.032 43.0373C162.7 42.3148 161.51 41.448 160.468 40.4366C159.422 39.425 158.54 38.251 157.819 36.9145C157.135 35.5779 156.703 34.079 156.524 32.4173C156.379 31.1169 156.379 29.9248 156.524 28.8411C156.703 27.7213 156.974 26.7099 157.334 25.8069C157.729 24.8676 158.179 24.0188 158.684 23.2602C159.188 22.5017 159.728 21.8334 160.304 21.2555C161.132 20.4246 162.087 19.684 163.168 19.0339C164.284 18.3475 165.509 17.8599 166.841 17.571C167.418 17.4266 168.156 17.3361 169.056 17.3C169.993 17.2279 170.857 17.2279 171.649 17.3C173.306 17.4807 174.782 17.9322 176.079 18.6546C177.412 19.3771 178.565 20.2441 179.537 21.2555C180.509 22.2308 181.354 23.4047 182.076 24.7774C182.796 26.1139 183.246 27.5949 183.426 29.2205C183.571 30.4486 183.606 31.713 183.534 33.0133C183.462 34.2777 183.426 35.5419 183.426 36.8061C183.426 38.0705 183.426 39.3167 183.426 40.5448C183.462 41.773 183.444 43.0193 183.372 44.2835ZM164.303 24.5607C163.869 24.958 163.456 25.4457 163.059 26.0236C162.663 26.5654 162.34 27.1795 162.087 27.8659C161.835 28.5522 161.656 29.2928 161.547 30.0874C161.475 30.846 161.529 31.6587 161.709 32.5257C161.89 33.3925 162.213 34.2416 162.681 35.0723C163.187 35.867 163.799 36.5895 164.519 37.2396C165.238 37.8537 166.068 38.3413 167.003 38.7025C167.94 39.0638 168.949 39.2445 170.029 39.2445C171.218 39.2445 172.297 39.0096 173.271 38.5401C174.279 38.0344 175.143 37.4202 175.863 36.6979C176.584 36.0114 177.196 35.1807 177.7 34.2053C178.204 33.1939 178.438 32.0379 178.401 30.7377C178.401 29.5456 178.15 28.4438 177.646 27.4324C177.178 26.3848 176.637 25.5541 176.025 24.9399C175.304 24.1452 174.35 23.477 173.162 22.9351C171.974 22.3933 170.676 22.2128 169.272 22.3933C167.184 22.6461 165.526 23.3686 164.303 24.5607ZM185.579 4.56689H190.443V17.7876C190.443 20.0634 190.406 22.339 190.334 24.6148C190.262 26.8545 190.297 28.9675 190.443 30.9544C190.622 33.4828 191.485 35.4878 193.035 36.9687C194.584 38.4136 196.637 39.2263 199.194 39.407V44.2294C197.14 44.3376 195.34 44.0848 193.791 43.4708C192.278 42.8567 190.982 42.0259 189.901 40.9783C188.857 40.0392 187.903 38.8651 187.038 37.4563C186.174 36.0114 185.669 34.4221 185.526 32.6882C185.418 31.5684 185.382 30.4306 185.418 29.2746C185.49 28.0825 185.526 26.8906 185.526 25.6985V4.7836C185.526 4.63914 185.544 4.56689 185.579 4.56689Z" fill="#3CD583"/>
<path d="M125.572 56.5405H118.017V55.3684L121.01 52.3341C121.586 51.7562 122.071 51.2424 122.467 50.7928C122.862 50.3434 123.16 49.9046 123.363 49.4764C123.565 49.0376 123.667 48.5613 123.667 48.0476C123.667 47.4161 123.48 46.9398 123.107 46.6187C122.733 46.287 122.248 46.1211 121.65 46.1211C121.095 46.1211 120.604 46.2174 120.178 46.41C119.761 46.6026 119.334 46.8702 118.897 47.2127L118.144 46.2656C118.444 46.0087 118.769 45.7786 119.121 45.5752C119.484 45.3718 119.873 45.2113 120.29 45.0936C120.717 44.9759 121.17 44.9169 121.65 44.9169C122.365 44.9169 122.979 45.04 123.491 45.2862C124.003 45.5324 124.398 45.8856 124.675 46.3458C124.964 46.7953 125.108 47.3359 125.108 47.9673C125.108 48.4169 125.039 48.8449 124.899 49.2516C124.761 49.6476 124.563 50.0384 124.307 50.4236C124.051 50.8089 123.742 51.1996 123.379 51.5955C123.016 51.9917 122.616 52.4037 122.179 52.8319L119.793 55.1917V55.256H125.572V56.5405Z" fill="#9C9C9C"/>
</g>
<defs>
<linearGradient id="paint0_linear_291_222" x1="48.5396" y1="15.9741" x2="23.2679" y2="52.8447" gradientUnits="userSpaceOnUse">
<stop offset="0.194889" stop-color="#4492EC"/>
<stop offset="0.477218" stop-color="#2B96AE"/>
<stop offset="0.726984" stop-color="#40E479"/>
</linearGradient>
<linearGradient id="paint1_linear_291_222" x1="48.54" y1="15.9739" x2="23.2683" y2="52.8443" gradientUnits="userSpaceOnUse">
<stop offset="0.194889" stop-color="#4492EC"/>
<stop offset="0.477218" stop-color="#2B96AE"/>
<stop offset="0.726984" stop-color="#40E479"/>
</linearGradient>
<linearGradient id="paint2_linear_291_222" x1="48.5396" y1="15.974" x2="23.268" y2="52.8444" gradientUnits="userSpaceOnUse">
<stop offset="0.194889" stop-color="#4492EC"/>
<stop offset="0.477218" stop-color="#2B96AE"/>
<stop offset="0.726984" stop-color="#40E479"/>
</linearGradient>
<linearGradient id="paint3_linear_291_222" x1="48.5399" y1="15.9741" x2="23.2682" y2="52.8445" gradientUnits="userSpaceOnUse">
<stop offset="0.194889" stop-color="#4492EC"/>
<stop offset="0.477218" stop-color="#2B96AE"/>
<stop offset="0.726984" stop-color="#40E479"/>
</linearGradient>
<clipPath id="clip0_291_222">
<rect width="200" height="59" fill="white"/>
</clipPath>
</defs>
</svg>
