<svg width="242" height="40" viewBox="0 0 242 40" fill="none" xmlns="http://www.w3.org/2000/svg">
<g clip-path="url(#clip0_291_235)">
<path d="M75.3648 3.89274H62.313V7.18183H71.8955C73.8257 7.18183 75.3648 8.75691 75.3648 10.6794V13.5516C75.3648 15.4972 73.8257 17.0491 71.8955 17.0491H59.05V13.7601H72.1024V10.4709H62.5198C60.5895 10.4709 59.05 8.89586 59.05 6.97337V4.1012C59.05 2.15554 60.5895 0.603638 62.5198 0.603638H75.3648V3.89274Z" fill="white"/>
<path d="M91.1872 0.603638C93.1174 0.603638 94.6799 2.15554 94.6799 4.1012V13.5516C94.6799 15.4972 93.1174 17.0491 91.1872 17.0491H81.1455C79.2154 17.0491 77.6755 15.4972 77.6755 13.5516V4.1012C77.6755 2.15554 79.2154 0.603638 81.1455 0.603638H91.1872ZM91.3941 3.89274H80.9386V13.7601H91.3941V3.89274Z" fill="white"/>
<path d="M100.49 13.6442H113.22V17.1881H99.2266C97.9854 17.1881 96.9744 16.169 96.9744 14.9182V0.464661H100.49V13.6442Z" fill="white"/>
<path d="M129.688 0.603638C131.25 0.603638 132.514 1.85442 132.514 3.42948V17.0491H129.229V11.6523H118.773V17.0491H115.51V3.42948C115.51 1.85442 116.751 0.603638 118.313 0.603638H129.688ZM129.229 3.89274H118.773V8.36314H129.229V3.89274Z" fill="white"/>
<path d="M148.528 0.603638H151.813V14.9182C151.813 16.0995 150.848 17.0491 149.676 17.0491H147.148C146.344 17.0723 145.632 16.6322 145.265 15.9142L138.922 3.89274H138.072V17.0491H134.809V2.75776C134.809 1.55331 135.751 0.603638 136.923 0.603638H139.589C140.37 0.603638 141.105 1.02056 141.473 1.73861L147.815 13.7601H148.528V0.603638Z" fill="white"/>
<path d="M168.286 0.603638C169.848 0.603638 171.112 1.85442 171.112 3.42948V17.0491H167.826V11.6523H157.37V17.0491H154.108V3.42948C154.108 1.85442 155.348 0.603638 156.911 0.603638H168.286ZM167.826 3.89274H157.37V8.36314H167.826V3.89274Z" fill="white"/>
<path d="M75.0435 25.5321H62.313V28.8212H75.0435V32.1103H62.313V38.6885H59.05V22.243H75.0435V25.5321Z" fill="white"/>
<path d="M90.8508 22.243C92.7809 22.243 94.3435 23.7949 94.3435 25.7405V35.191C94.3435 37.1366 92.7809 38.6885 90.8508 38.6885H80.8084C78.8783 38.6885 77.3391 37.1366 77.3391 35.191V25.7405C77.3391 23.7949 78.8783 22.243 80.8084 22.243H90.8508ZM91.057 25.5321H80.6016V35.3994H91.057V25.5321Z" fill="white"/>
<path d="M110.356 22.243H113.642V33.1758C113.619 36.2333 111.183 38.6885 108.15 38.6885H102.106C99.0735 38.6885 96.6373 36.2333 96.6373 33.1758V22.243H99.9004V32.5041C99.9004 34.1023 101.187 35.3994 102.773 35.3994H107.484C109.069 35.3994 110.356 34.1023 110.356 32.5041V22.243Z" fill="white"/>
<path d="M129.655 22.243H132.941V36.5575C132.941 37.7388 131.976 38.6885 130.804 38.6885H128.276C127.472 38.7117 126.759 38.2716 126.392 37.5535L120.05 25.5321H119.199V38.6885H115.936V24.3971C115.936 23.1927 116.879 22.243 118.051 22.243H120.716C121.497 22.243 122.233 22.66 122.6 23.378L128.942 35.3994H129.655V22.243Z" fill="white"/>
<path d="M146.748 22.243C149.781 22.243 152.217 24.7214 152.239 27.7557V33.1758C152.217 36.2333 149.781 38.6885 146.748 38.6885H135.235V22.243H146.748ZM148.954 28.4506C148.954 26.8292 147.667 25.5321 146.081 25.5321H138.498V35.3994H146.081C147.667 35.3994 148.954 34.1023 148.954 32.5041V28.4506Z" fill="white"/>
<path d="M168.712 22.243C170.274 22.243 171.538 23.4938 171.538 25.0689V38.6885H168.252V33.2916H157.797V38.6885H154.534V25.0689C154.534 23.4938 155.774 22.243 157.337 22.243H168.712ZM168.252 25.5321H157.797V30.0025H168.252V25.5321Z" fill="white"/>
<path d="M173.833 22.243H190.148V25.5321H183.622V38.6885H180.359V25.5321H173.833V22.243Z" fill="white"/>
<path d="M195.721 38.6885H192.458V22.243H195.721V38.6885Z" fill="white"/>
<path d="M211.535 22.243C213.465 22.243 215.028 23.7949 215.028 25.7405V35.191C215.028 37.1366 213.465 38.6885 211.535 38.6885H201.493C199.563 38.6885 198.023 37.1366 198.023 35.191V25.7405C198.023 23.7949 199.563 22.243 201.493 22.243H211.535ZM211.742 25.5321H201.287V35.3994H211.742V25.5321Z" fill="white"/>
<path d="M231.041 22.243H234.327V36.5575C234.327 37.7388 233.362 38.6885 232.19 38.6885H229.662C228.858 38.7117 228.146 38.2716 227.778 37.5535L221.435 25.5321H220.585V38.6885H217.323V24.3971C217.323 23.1927 218.265 22.243 219.436 22.243H222.102C222.883 22.243 223.619 22.66 223.986 23.378L230.328 35.3994H231.041V22.243Z" fill="white"/>
<mask id="mask0_291_235" style="mask-type:luminance" maskUnits="userSpaceOnUse" x="0" y="1" width="43" height="39">
<path d="M42.1869 1.06671H0V39.1672H42.1869V1.06671Z" fill="white"/>
</mask>
<g mask="url(#mask0_291_235)">
<path d="M41.9695 31.1062L35.0054 38.6483C34.854 38.8121 34.6708 38.9427 34.4673 39.032C34.2637 39.1213 34.0442 39.1673 33.8223 39.1672H0.808494C0.650967 39.1672 0.496875 39.1207 0.365146 39.0335C0.233418 38.9463 0.129793 38.8221 0.0670047 38.6762C0.00421547 38.5302 -0.0150027 38.3691 0.0117113 38.2123C0.0384253 38.0555 0.109908 37.9101 0.217376 37.7937L7.18681 30.2517C7.3378 30.0883 7.5204 29.9579 7.72331 29.8687C7.92621 29.7794 8.14505 29.7331 8.36636 29.7327H41.3783C41.5359 29.7328 41.69 29.7792 41.8217 29.8665C41.9535 29.9537 42.057 30.0779 42.1199 30.2238C42.1826 30.3697 42.2018 30.5309 42.1752 30.6877C42.1484 30.8444 42.0769 30.9899 41.9695 31.1062ZM35.0054 15.9186C34.854 15.7548 34.6708 15.6241 34.4673 15.5349C34.2637 15.4457 34.0442 15.3996 33.8223 15.3998H0.808494C0.650967 15.3998 0.496875 15.4462 0.365146 15.5335C0.233418 15.6207 0.129793 15.7449 0.0670047 15.8908C0.00421547 16.0366 -0.0150027 16.1979 0.0117113 16.3546C0.0384253 16.5114 0.109908 16.6569 0.217376 16.7732L7.18681 24.3152C7.3378 24.4786 7.5204 24.609 7.72331 24.6982C7.92621 24.7875 8.14505 24.8338 8.36636 24.8341H41.3783C41.5359 24.8341 41.69 24.7877 41.8217 24.7004C41.9535 24.6132 42.057 24.489 42.1199 24.3431C42.1826 24.1973 42.2018 24.036 42.1752 23.8792C42.1484 23.7225 42.0769 23.577 41.9695 23.4607L35.0054 15.9186ZM0.808494 10.5011H33.8223C34.0442 10.5012 34.2637 10.4552 34.4673 10.3659C34.6708 10.2767 34.854 10.1461 35.0054 9.98225L41.9695 2.44014C42.0769 2.32384 42.1484 2.17837 42.1752 2.0216C42.2018 1.86484 42.1826 1.70361 42.1199 1.55772C42.057 1.41183 41.9535 1.28765 41.8217 1.20042C41.69 1.11319 41.5359 1.06672 41.3783 1.06671H8.36636C8.14505 1.06709 7.92621 1.11334 7.72331 1.20259C7.5204 1.29185 7.3378 1.42221 7.18681 1.5856L0.219172 9.12769C0.111808 9.24389 0.0403573 9.3892 0.0135827 9.54579C-0.0131919 9.70238 0.00587375 9.86343 0.0684417 10.0093C0.131009 10.1551 0.234359 10.2793 0.365816 10.3666C0.497273 10.4541 0.651123 10.5007 0.808494 10.5011Z" fill="url(#paint0_linear_291_235)"/>
</g>
</g>
<defs>
<linearGradient id="paint0_linear_291_235" x1="3.56107" y1="40.0752" x2="38.56" y2="1.00432" gradientUnits="userSpaceOnUse">
<stop offset="0.08" stop-color="#9945FF"/>
<stop offset="0.3" stop-color="#8752F3"/>
<stop offset="0.5" stop-color="#5497D5"/>
<stop offset="0.6" stop-color="#43B4CA"/>
<stop offset="0.72" stop-color="#28E0B9"/>
<stop offset="0.97" stop-color="#19FB9B"/>
</linearGradient>
<clipPath id="clip0_291_235">
<rect width="242" height="40" fill="white"/>
</clipPath>
</defs>
</svg>
