<?xml version="1.0" encoding="UTF-8" standalone="no"?>
<svg
   xmlns:dc="http://purl.org/dc/elements/1.1/"
   xmlns:cc="http://creativecommons.org/ns#"
   xmlns:rdf="http://www.w3.org/1999/02/22-rdf-syntax-ns#"
   xmlns:svg="http://www.w3.org/2000/svg"
   xmlns="http://www.w3.org/2000/svg"
   xmlns:sodipodi="http://sodipodi.sourceforge.net/DTD/sodipodi-0.dtd"
   xmlns:inkscape="http://www.inkscape.org/namespaces/inkscape"
   version="1.1"
   id="svg2"
   xml:space="preserve"
   width="1440"
   height="1440"
   viewBox="0 0 1440 1440"
   sodipodi:docname="S_iso.ai"><metadata
     id="metadata8"><rdf:RDF><cc:Work
         rdf:about=""><dc:format>image/svg+xml</dc:format><dc:type
           rdf:resource="http://purl.org/dc/dcmitype/StillImage" /></cc:Work></rdf:RDF></metadata><defs
     id="defs6" /><sodipodi:namedview
     pagecolor="#ffffff"
     bordercolor="#666666"
     borderopacity="1"
     objecttolerance="10"
     gridtolerance="10"
     guidetolerance="10"
     inkscape:pageopacity="0"
     inkscape:pageshadow="2"
     inkscape:window-width="640"
     inkscape:window-height="480"
     id="namedview4" /><g
     id="g10"
     inkscape:groupmode="layer"
     inkscape:label="S_iso"
     transform="matrix(1.3333333,0,0,-1.3333333,0,1440)"><path
       d="M 552.439,769.928 H 528.07 V 893.51 h 24.369 z"
       style="fill:#a177dc;fill-opacity:1;fill-rule:nonzero;stroke:none"
       id="path12" /><path
       d="M 552.439,185.667 H 528.07 v 123.582 h 24.369 z"
       style="fill:#a177dc;fill-opacity:1;fill-rule:nonzero;stroke:none"
       id="path14" /><path
       d="M 770.594,551.772 H 894.177 V 527.404 H 770.594 Z"
       style="fill:#f0bd45;fill-opacity:1;fill-rule:nonzero;stroke:none"
       id="path16" /><path
       d="M 186.333,551.772 H 309.915 V 527.404 H 186.333 Z"
       style="fill:#f0bd45;fill-opacity:1;fill-rule:nonzero;stroke:none"
       id="path18" /><g
       id="g20"
       transform="translate(385.9961,711.0781)"><path
         d="m 0,0 -17.231,-17.231 -87.386,87.386 17.231,17.231 z"
         style="fill:#de3614;fill-opacity:1;fill-rule:nonzero;stroke:none"
         id="path22" /></g><g
       id="g24"
       transform="translate(799.1309,297.9434)"><path
         d="m 0,0 -17.231,-17.231 -87.386,87.386 17.231,17.231 z"
         style="fill:#de3614;fill-opacity:1;fill-rule:nonzero;stroke:none"
         id="path26" /></g><g
       id="g28"
       transform="translate(711.7451,693.8472)"><path
         d="M 0,0 -17.231,17.231 70.154,104.617 87.386,87.386 Z"
         style="fill:#285429;fill-opacity:1;fill-rule:nonzero;stroke:none"
         id="path30" /></g><g
       id="g32"
       transform="translate(298.6099,280.7119)"><path
         d="m 0,0 -17.231,17.231 87.386,87.386 17.231,-17.23 z"
         style="fill:#285429;fill-opacity:1;fill-rule:nonzero;stroke:none"
         id="path34" /></g><g
       id="g36"
       transform="translate(465.8447,757.918)"><path
         d="m 0,0 -22.618,-9.069 -45.99,114.706 22.618,9.069 z"
         style="fill:#de76ab;fill-opacity:1;fill-rule:nonzero;stroke:none"
         id="path38" /></g><g
       id="g40"
       transform="translate(683.2734,215.6211)"><path
         d="m 0,0 -22.618,-9.068 -45.99,114.706 22.618,9.068 z"
         style="fill:#de76ab;fill-opacity:1;fill-rule:nonzero;stroke:none"
         id="path42" /></g><g
       id="g44"
       transform="translate(758.585,613.998)"><path
         d="m 0,0 -9.069,22.618 114.706,45.99 9.069,-22.618 z"
         style="fill:#70b861;fill-opacity:1;fill-rule:nonzero;stroke:none"
         id="path46" /></g><g
       id="g48"
       transform="translate(216.2876,396.5703)"><path
         d="m 0,0 -9.068,22.618 114.706,45.99 9.068,-22.618 z"
         style="fill:#70b861;fill-opacity:1;fill-rule:nonzero;stroke:none"
         id="path50" /></g><g
       id="g52"
       transform="translate(333.2568,641.355)"><path
         d="m 0,0 -9.581,-22.406 -113.629,48.59 9.581,22.405 z"
         style="fill:#ff5500;fill-opacity:1;fill-rule:nonzero;stroke:none"
         id="path54" /></g><g
       id="g56"
       transform="translate(870.4639,411.6377)"><path
         d="m 0,0 -9.581,-22.405 -113.63,48.589 9.581,22.406 z"
         style="fill:#ff5500;fill-opacity:1;fill-rule:nonzero;stroke:none"
         id="path58" /></g><g
       id="g60"
       transform="translate(642.0215,746.5864)"><path
         d="M 0,0 -22.406,9.581 26.184,123.21 48.59,113.629 Z"
         style="fill:#2f06f8;fill-opacity:1;fill-rule:nonzero;stroke:none"
         id="path62" /></g><g
       id="g64"
       transform="translate(412.3047,209.3799)"><path
         d="m 0,0 -22.406,9.581 48.59,113.629 22.405,-9.581 z"
         style="fill:#2f06f8;fill-opacity:1;fill-rule:nonzero;stroke:none"
         id="path66" /></g><g
       id="g68"
       transform="translate(519.019,690.0356)"><path
         d="m 0,0 -15.753,-3.08 -15.62,79.892 15.753,3.08 z"
         style="fill:#a177dc;fill-opacity:1;fill-rule:nonzero;stroke:none"
         id="path70" /></g><g
       id="g72"
       transform="translate(592.8643,312.3291)"><path
         d="m 0,0 -15.754,-3.08 -15.619,79.892 15.753,3.08 z"
         style="fill:#a177dc;fill-opacity:1;fill-rule:nonzero;stroke:none"
         id="path74" /></g><g
       id="g76"
       transform="translate(690.7021,560.8242)"><path
         d="M 0,0 -3.08,15.753 76.813,31.373 79.892,15.62 Z"
         style="fill:#f0bd45;fill-opacity:1;fill-rule:nonzero;stroke:none"
         id="path78" /></g><g
       id="g80"
       transform="translate(312.9956,486.9795)"><path
         d="m 0,0 -3.08,15.753 79.892,15.62 3.08,-15.754 z"
         style="fill:#f0bd45;fill-opacity:1;fill-rule:nonzero;stroke:none"
         id="path82" /></g><g
       id="g84"
       transform="translate(418.8564,630.9541)"><path
         d="m 0,0 -8.961,-13.317 -67.538,45.447 8.962,13.318 z"
         style="fill:#de3614;fill-opacity:1;fill-rule:nonzero;stroke:none"
         id="path86" /></g><g
       id="g88"
       transform="translate(738.1514,416.0918)"><path
         d="m 0,0 -8.961,-13.317 -67.537,45.447 8.962,13.317 z"
         style="fill:#de3614;fill-opacity:1;fill-rule:nonzero;stroke:none"
         id="path90" /></g><g
       id="g92"
       transform="translate(631.6211,660.9868)"><path
         d="M 0,0 -13.317,8.961 32.13,76.499 45.447,67.537 Z"
         style="fill:#285429;fill-opacity:1;fill-rule:nonzero;stroke:none"
         id="path94" /></g><g
       id="g96"
       transform="translate(416.7583,341.6914)"><path
         d="M 0,0 -13.317,8.961 32.13,76.498 45.448,67.537 Z"
         style="fill:#285429;fill-opacity:1;fill-rule:nonzero;stroke:none"
         id="path98" /></g><g
       id="g100"
       transform="translate(464.5562,671.3267)"><path
         d="m 0,0 -13.476,-8.721 -44.229,68.341 13.476,8.721 z"
         style="fill:#de76ab;fill-opacity:1;fill-rule:nonzero;stroke:none"
         id="path102" /></g><g
       id="g104"
       transform="translate(673.6582,348.2295)"><path
         d="m 0,0 -13.476,-8.721 -44.229,68.341 13.476,8.722 z"
         style="fill:#de76ab;fill-opacity:1;fill-rule:nonzero;stroke:none"
         id="path106" /></g><g
       id="g108"
       transform="translate(671.9932,615.2866)"><path
         d="M 0,0 -8.721,13.476 59.62,57.705 68.342,44.229 Z"
         style="fill:#70b861;fill-opacity:1;fill-rule:nonzero;stroke:none"
         id="path110" /></g><g
       id="g112"
       transform="translate(348.8965,406.1846)"><path
         d="M 0,0 -8.721,13.477 59.62,57.705 68.341,44.229 Z"
         style="fill:#70b861;fill-opacity:1;fill-rule:nonzero;stroke:none"
         id="path114" /></g><g
       id="g116"
       transform="translate(393.5747,579.2144)"><path
         d="M 0,0 -3.362,-15.695 -82.961,1.354 -79.599,17.05 Z"
         style="fill:#ff5500;fill-opacity:1;fill-rule:nonzero;stroke:none"
         id="path118" /></g><g
       id="g120"
       transform="translate(769.8965,498.6074)"><path
         d="M 0,0 -3.362,-15.695 -82.961,1.354 -79.6,17.05 Z"
         style="fill:#ff5500;fill-opacity:1;fill-rule:nonzero;stroke:none"
         id="path122" /></g><g
       id="g124"
       transform="translate(579.8809,686.2686)"><path
         d="M 0,0 -15.695,3.362 1.354,82.961 17.05,79.599 Z"
         style="fill:#2f06f8;fill-opacity:1;fill-rule:nonzero;stroke:none"
         id="path126" /></g><g
       id="g128"
       transform="translate(499.2744,309.9473)"><path
         d="m 0,0 -15.696,3.361 17.05,79.6 15.696,-3.362 z"
         style="fill:#2f06f8;fill-opacity:1;fill-rule:nonzero;stroke:none"
         id="path130" /></g><g
       id="g132"
       transform="translate(508.5518,632.1572)"><path
         d="m 0,0 -9.589,-3.861 -19.582,48.629 9.589,3.861 z"
         style="fill:#a177dc;fill-opacity:1;fill-rule:nonzero;stroke:none"
         id="path134" /></g><g
       id="g136"
       transform="translate(601.1289,402.251)"><path
         d="m 0,0 -9.589,-3.861 -19.582,48.63 9.589,3.861 z"
         style="fill:#a177dc;fill-opacity:1;fill-rule:nonzero;stroke:none"
         id="path138" /></g><g
       id="g140"
       transform="translate(632.8242,571.2915)"><path
         d="m 0,0 -3.861,9.589 48.629,19.582 3.861,-9.589 z"
         style="fill:#f0bd45;fill-opacity:1;fill-rule:nonzero;stroke:none"
         id="path142" /></g><g
       id="g144"
       transform="translate(402.9175,478.7139)"><path
         d="m 0,0 -3.861,9.589 48.63,19.582 3.861,-9.589 z"
         style="fill:#f0bd45;fill-opacity:1;fill-rule:nonzero;stroke:none"
         id="path146" /></g><g
       id="g148"
       transform="translate(452.3813,582.627)"><path
         d="m 0,0 -4.05,-9.511 -48.233,20.54 4.05,9.511 z"
         style="fill:#de3614;fill-opacity:1;fill-rule:nonzero;stroke:none"
         id="path150" /></g><g
       id="g152"
       transform="translate(680.4111,485.5205)"><path
         d="m 0,0 -4.05,-9.511 -48.232,20.54 4.05,9.511 z"
         style="fill:#de3614;fill-opacity:1;fill-rule:nonzero;stroke:none"
         id="path154" /></g><g
       id="g156"
       transform="translate(583.293,627.4619)"><path
         d="m 0,0 -9.51,4.05 20.539,48.233 9.511,-4.05 z"
         style="fill:#285429;fill-opacity:1;fill-rule:nonzero;stroke:none"
         id="path158" /></g><g
       id="g160"
       transform="translate(486.187,399.4316)"><path
         d="M 0,0 -9.51,4.05 11.029,52.283 20.54,48.232 Z"
         style="fill:#285429;fill-opacity:1;fill-rule:nonzero;stroke:none"
         id="path162" /></g><g
       id="g164"
       transform="translate(476.3799,613.7104)"><path
         d="m 0,0 -7.463,-7.152 -36.273,37.849 7.464,7.153 z"
         style="fill:#de76ab;fill-opacity:1;fill-rule:nonzero;stroke:none"
         id="path166" /></g><g
       id="g168"
       transform="translate(647.8652,434.7686)"><path
         d="m 0,0 -7.463,-7.152 -36.272,37.849 7.463,7.153 z"
         style="fill:#de76ab;fill-opacity:1;fill-rule:nonzero;stroke:none"
         id="path170" /></g><g
       id="g172"
       transform="translate(614.377,603.4634)"><path
         d="M 0,0 -7.152,7.463 30.697,43.735 37.85,36.272 Z"
         style="fill:#70b861;fill-opacity:1;fill-rule:nonzero;stroke:none"
         id="path174" /></g><g
       id="g176"
       transform="translate(435.4355,431.9775)"><path
         d="M 0,0 -7.152,7.463 30.697,43.735 37.85,36.272 Z"
         style="fill:#70b861;fill-opacity:1;fill-rule:nonzero;stroke:none"
         id="path178" /></g><g
       id="g180"
       transform="translate(442.6763,546.834)"><path
         d="m 0,0 -0.22,-10.335 -52.412,1.115 0.22,10.335 z"
         style="fill:#ff5500;fill-opacity:1;fill-rule:nonzero;stroke:none"
         id="path182" /></g><g
       id="g184"
       transform="translate(690.4658,541.562)"><path
         d="m 0,0 -0.22,-10.334 -52.412,1.115 0.22,10.334 z"
         style="fill:#ff5500;fill-opacity:1;fill-rule:nonzero;stroke:none"
         id="path186" /></g><g
       id="g188"
       transform="translate(547.501,637.167)"><path
         d="M 0,0 -10.335,0.22 -9.22,52.632 1.115,52.412 Z"
         style="fill:#2f06f8;fill-opacity:1;fill-rule:nonzero;stroke:none"
         id="path190" /></g><g
       id="g192"
       transform="translate(542.2285,389.3779)"><path
         d="m 0,0 -10.334,0.22 1.115,52.412 10.334,-0.22 z"
         style="fill:#2f06f8;fill-opacity:1;fill-rule:nonzero;stroke:none"
         id="path194" /></g><g
       id="g196"
       transform="translate(507.9463,594.4019)"><path
         d="m 0,0 -5.602,-3.714 -18.837,28.412 5.602,3.714 z"
         style="fill:#a177dc;fill-opacity:1;fill-rule:nonzero;stroke:none"
         id="path198" /></g><g
       id="g200"
       transform="translate(597.0029,460.0771)"><path
         d="m 0,0 -5.603,-3.715 -18.836,28.412 5.602,3.715 z"
         style="fill:#a177dc;fill-opacity:1;fill-rule:nonzero;stroke:none"
         id="path202" /></g><g
       id="g204"
       transform="translate(595.0684,571.8965)"><path
         d="M 0,0 -3.714,5.603 24.698,24.44 28.412,18.837 Z"
         style="fill:#f0bd45;fill-opacity:1;fill-rule:nonzero;stroke:none"
         id="path206" /></g><g
       id="g208"
       transform="translate(460.7437,482.8398)"><path
         d="M 0,0 -3.714,5.603 24.698,24.44 28.412,18.838 Z"
         style="fill:#f0bd45;fill-opacity:1;fill-rule:nonzero;stroke:none"
         id="path210" /></g><g
       id="g212"
       transform="translate(478.6504,555.5015)"><path
         d="m 0,0 -1.335,-6.588 -33.411,6.771 1.336,6.588 z"
         style="fill:#de3614;fill-opacity:1;fill-rule:nonzero;stroke:none"
         id="path214" /></g><g
       id="g216"
       transform="translate(636.6045,523.4922)"><path
         d="m 0,0 -1.335,-6.588 -33.41,6.771 1.335,6.588 z"
         style="fill:#de3614;fill-opacity:1;fill-rule:nonzero;stroke:none"
         id="path218" /></g><g
       id="g220"
       transform="translate(556.168,601.1929)"><path
         d="M 0,0 -6.588,1.335 0.183,34.745 6.771,33.41 Z"
         style="fill:#285429;fill-opacity:1;fill-rule:nonzero;stroke:none"
         id="path222" /></g><g
       id="g224"
       transform="translate(524.1587,443.2383)"><path
         d="M 0,0 -6.588,1.335 0.183,34.745 6.771,33.41 Z"
         style="fill:#285429;fill-opacity:1;fill-rule:nonzero;stroke:none"
         id="path226" /></g><g
       id="g228"
       transform="translate(489.8687,578.4414)"><path
         d="m 0,0 -3.818,-5.532 -28.057,19.361 3.817,5.532 z"
         style="fill:#de76ab;fill-opacity:1;fill-rule:nonzero;stroke:none"
         id="path230" /></g><g
       id="g232"
       transform="translate(622.5166,486.9062)"><path
         d="m 0,0 -3.817,-5.532 -28.058,19.361 3.817,5.532 z"
         style="fill:#de76ab;fill-opacity:1;fill-rule:nonzero;stroke:none"
         id="path234" /></g><g
       id="g236"
       transform="translate(579.1084,589.9746)"><path
         d="m 0,0 -5.533,3.818 19.362,28.057 5.532,-3.817 z"
         style="fill:#70b861;fill-opacity:1;fill-rule:nonzero;stroke:none"
         id="path238" /></g><g
       id="g240"
       transform="translate(487.5728,457.3262)"><path
         d="m 0,0 -5.533,3.818 19.362,28.058 5.532,-3.818 z"
         style="fill:#70b861;fill-opacity:1;fill-rule:nonzero;stroke:none"
         id="path242" /></g><g
       id="g244"
       transform="translate(477.1528,531.4326)"><path
         d="m 0,0 1.213,-6.611 -33.531,-6.149 -1.212,6.612 z"
         style="fill:#ff5500;fill-opacity:1;fill-rule:nonzero;stroke:none"
         id="path246" /></g><g
       id="g248"
       transform="translate(635.6748,560.5039)"><path
         d="m 0,0 1.212,-6.611 -33.53,-6.15 -1.212,6.612 z"
         style="fill:#ff5500;fill-opacity:1;fill-rule:nonzero;stroke:none"
         id="path250" /></g><g
       id="g252"
       transform="translate(532.0996,602.6899)"><path
         d="m 0,0 -6.611,-1.212 -6.15,33.53 6.612,1.212 z"
         style="fill:#2f06f8;fill-opacity:1;fill-rule:nonzero;stroke:none"
         id="path254" /></g><g
       id="g256"
       transform="translate(561.1709,444.1689)"><path
         d="m 0,0 -6.611,-1.213 -6.15,33.53 6.612,1.213 z"
         style="fill:#2f06f8;fill-opacity:1;fill-rule:nonzero;stroke:none"
         id="path258" /></g></g></svg>
