<svg width="45" height="93" viewBox="0 0 45 93" fill="none" xmlns="http://www.w3.org/2000/svg">
<path d="M7.81275 73.864C5.76475 73.2667 4.33542 72.6693 3.52475 72.072C2.75675 71.4747 2.37275 70.728 2.37275 69.832C2.37275 69.1493 2.56475 68.1893 2.94875 66.952C3.33275 65.7147 3.88742 64.264 4.61275 62.6C5.38075 60.8933 6.27675 59.016 7.30075 56.968C8.36742 54.92 9.56208 52.7227 10.8848 50.376C9.77542 50.3333 8.77275 50.312 7.87675 50.312C7.02342 50.2693 6.31942 50.248 5.76475 50.248C6.02075 49.608 6.74608 49.0533 7.94075 48.584C9.13542 48.1147 10.7141 47.7093 12.6768 47.368C14.3408 44.5947 16.1114 41.9493 17.9888 39.432C19.9088 36.9147 21.8288 34.6107 23.7488 32.52C25.6688 30.3867 27.5888 28.5307 29.5088 26.952C31.4288 25.3307 33.2634 24.0507 35.0128 23.112C35.0554 22.8133 35.0768 22.5573 35.0768 22.344C35.1194 22.1307 35.1408 21.9813 35.1408 21.896C35.7381 21.896 36.5274 22.0453 37.5088 22.344C38.5328 22.6427 39.5141 23.0053 40.4528 23.432C41.4341 23.8587 42.2874 24.3067 43.0128 24.776C43.7808 25.2027 44.2074 25.5653 44.2928 25.864C42.8848 28.3387 41.4981 32.0507 40.1328 37C38.7674 41.9067 37.6368 47.7947 36.7408 54.664C36.5274 56.3707 36.3354 58.312 36.1648 60.488C36.0368 62.664 35.9728 65.096 35.9728 67.784C35.9728 68.7227 35.9728 69.6827 35.9728 70.664C35.9728 71.6453 36.0154 72.6693 36.1007 73.736C36.0154 73.7787 35.9301 73.8 35.8448 73.8C35.7594 73.8 35.5888 73.8 35.3328 73.8C34.7354 73.8 34.0314 73.6933 33.2208 73.48C32.4528 73.3093 31.6848 73.0747 30.9168 72.776C30.1914 72.52 29.5514 72.2213 28.9968 71.88C28.4848 71.5387 28.1648 71.24 28.0368 70.984C27.9941 70.4293 27.9728 69.8747 27.9728 69.32C27.9728 68.808 27.9728 68.2533 27.9728 67.656C27.9728 65.0107 28.0581 62.3227 28.2288 59.592C28.4421 56.8613 28.7834 54.0453 29.2528 51.144C28.6554 51.1013 27.8661 51.0587 26.8848 51.016C25.9034 50.9307 24.7941 50.8667 23.5568 50.824C22.3621 50.7813 21.0608 50.7387 19.6528 50.696C18.2874 50.6107 16.9434 50.5467 15.6208 50.504C14.5968 52.424 13.6368 54.344 12.7408 56.264C11.8448 58.1413 11.0768 60.04 10.4368 61.96C9.71142 64.008 9.11408 66.056 8.64475 68.104C8.21808 70.152 7.94075 72.072 7.81275 73.864ZM32.5168 35.4C32.6874 34.8027 32.8794 33.992 33.0928 32.968C33.3488 31.9013 33.5834 30.792 33.7968 29.64C32.7301 30.024 31.5354 30.728 30.2128 31.752C28.9328 32.776 27.5888 34.056 26.1808 35.592C24.8154 37.0853 23.4074 38.792 21.9568 40.712C20.5488 42.5893 19.1834 44.5947 17.8608 46.728C21.4448 46.4293 25.5194 46.2373 30.0848 46.152C30.4261 44.36 30.7888 42.5893 31.1728 40.84C31.5994 39.048 32.0474 37.2347 32.5168 35.4Z" fill="white"/>
</svg>
