<svg width="39" height="93" viewBox="0 0 39 93" fill="none" xmlns="http://www.w3.org/2000/svg">
<path d="M13.111 60.328C12.4283 60.4133 11.895 60.264 11.511 59.88C11.1697 59.5387 10.999 59.1547 10.999 58.728C10.999 58.3867 11.1057 58.0667 11.319 57.768C11.575 57.512 11.9377 57.3413 12.407 57.256C13.5163 57.0853 14.903 56.7867 16.567 56.36C18.2737 55.9333 20.023 55.3787 21.815 54.696C23.6497 53.9707 25.3137 53.0747 26.807 52.008C28.727 50.6427 30.2843 49.32 31.479 48.04C32.6737 46.76 33.6337 45.224 34.359 43.432C34.5723 42.8773 34.679 42.4507 34.679 42.152C34.679 41.64 34.4443 41.192 33.975 40.808C33.5483 40.424 32.9083 39.8053 32.055 38.952C31.2017 38.0987 30.2417 37.5653 29.175 37.352C28.151 37.096 26.743 36.7547 24.951 36.328C23.7563 35.9867 22.647 35.7093 21.623 35.496C20.6417 35.2827 19.7243 35.176 18.871 35.176C18.359 35.176 17.9537 35.0053 17.655 34.664C17.3563 34.3227 17.207 33.9387 17.207 33.512C17.207 32.7867 17.5483 32.3387 18.231 32.168C18.9563 31.9547 19.8097 31.6773 20.791 31.336C21.815 30.9947 22.839 30.5893 23.863 30.12C24.887 29.6507 25.783 29.096 26.551 28.456C27.319 27.816 27.8097 27.0907 28.023 26.28C28.1083 25.896 28.1723 25.5547 28.215 25.256C28.3003 24.9147 28.343 24.5947 28.343 24.296C28.343 23.144 27.9377 22.2693 27.127 21.672C26.359 21.0747 25.2497 20.5627 23.799 20.136C23.2443 19.9653 22.6683 19.88 22.071 19.88C21.6443 19.88 21.1963 19.944 20.727 20.072C20.3003 20.1573 19.7243 20.3067 18.999 20.52C18.6577 20.52 18.3163 20.6267 17.975 20.84C17.6337 21.0533 17.1643 21.3093 16.567 21.608C16.439 21.6507 16.311 21.6933 16.183 21.736C16.055 21.736 15.927 21.736 15.799 21.736C15.2443 21.736 14.775 21.5653 14.391 21.224C14.0497 20.8827 13.879 20.4987 13.879 20.072C13.879 19.4747 14.2417 19.048 14.967 18.792C15.3937 18.664 15.799 18.472 16.183 18.216C16.6097 17.96 17.1643 17.7253 17.847 17.512C18.5297 17.2987 19.2123 17.128 19.895 17C20.5777 16.872 21.2817 16.808 22.007 16.808C22.4763 16.808 22.9243 16.8507 23.351 16.936C23.8203 16.9787 24.311 17.0427 24.823 17.128C26.6577 17.5547 28.3003 18.3867 29.751 19.624C31.2443 20.8613 31.991 22.4613 31.991 24.424C31.991 24.8507 31.9483 25.2987 31.863 25.768C31.8203 26.1947 31.6923 26.6427 31.479 27.112C30.9243 28.5627 30.0497 29.7787 28.855 30.76C27.703 31.6987 26.4657 32.488 25.143 33.128C25.2283 33.128 25.3563 33.1493 25.527 33.192C25.6977 33.2347 25.8683 33.2773 26.039 33.32C27.4897 33.704 28.9617 34.0667 30.455 34.408C31.991 34.7067 33.4203 35.5387 34.743 36.904C35.127 37.288 35.5963 37.736 36.151 38.248C36.7057 38.7173 37.1963 39.2933 37.623 39.976C38.0497 40.6587 38.263 41.448 38.263 42.344C38.263 42.6427 38.2203 42.984 38.135 43.368C38.0923 43.752 37.9643 44.1573 37.751 44.584C36.855 46.5893 35.703 48.3813 34.295 49.96C32.9297 51.5387 31.2017 53.0747 29.111 54.568C27.319 55.8053 25.399 56.808 23.351 57.576C21.3457 58.3867 19.4257 59.0053 17.591 59.432C15.799 59.8587 14.3057 60.1573 13.111 60.328ZM5.431 61.352C4.663 61.352 3.895 61.0747 3.127 60.52C2.359 60.008 2.039 59.1547 2.167 57.96C2.295 56.6373 2.70033 54.888 3.383 52.712C4.10833 50.536 4.983 48.1893 6.007 45.672C7.031 43.112 8.119 40.552 9.271 37.992C10.4657 35.3893 11.6177 33 12.727 30.824C13.879 28.648 14.8603 26.856 15.671 25.448C16.055 24.7653 16.6523 24.424 17.463 24.424C17.9323 24.424 18.359 24.5947 18.743 24.936C19.127 25.2773 19.2763 25.7467 19.191 26.344V26.28C19.1483 26.7067 18.9777 27.368 18.679 28.264C18.3803 29.16 18.0603 29.864 17.719 30.376C17.2497 31.0587 16.6737 31.7627 15.991 32.488C15.3083 33.1707 14.711 34.0027 14.199 34.984C12.6203 37.928 11.191 40.8293 9.911 43.688C8.67367 46.504 7.671 49.0853 6.903 51.432C6.135 53.736 5.687 55.6347 5.559 57.128C5.51633 57.4267 5.64433 57.7467 5.943 58.088C6.28433 58.4293 6.60433 58.7707 6.903 59.112C7.24433 59.4533 7.415 59.7947 7.415 60.136C7.415 60.4347 7.18033 60.7333 6.711 61.032C6.36967 61.2453 5.943 61.352 5.431 61.352Z" fill="white"/>
</svg>
