<svg width="47" height="93" viewBox="0 0 47 93" fill="none" xmlns="http://www.w3.org/2000/svg">
<path d="M46.56 33.736C46.56 36.3813 45.8347 38.7493 44.384 40.84C42.9333 42.888 40.9493 44.5947 38.432 45.96C40.0533 47.0693 41.3333 48.4347 42.272 50.056C43.2533 51.6347 43.744 53.384 43.744 55.304C43.744 57.608 43.04 59.8907 41.632 62.152C40.2667 64.3707 38.432 66.3547 36.128 68.104C33.824 69.8107 31.2 71.1973 28.256 72.264C25.312 73.3307 22.304 73.864 19.232 73.864C15.904 73.864 12.9813 73.224 10.464 71.944C7.98933 70.7067 6.048 68.936 4.64 66.632C5.06667 65.352 5.62133 63.7733 6.304 61.896C7.02933 59.976 7.81867 57.9707 8.672 55.88C9.52533 53.7467 10.3787 51.6347 11.232 49.544C12.128 47.4533 12.96 45.576 13.728 43.912C15.3493 40.2853 16.8 37.2773 18.08 34.888C19.36 32.4987 20.5333 30.6 21.6 29.192C19.2533 29.9173 17.12 30.7493 15.2 31.688C13.28 32.584 11.872 33.4587 10.976 34.312C10.592 34.056 10.1867 33.672 9.76 33.16C9.376 32.648 8.992 32.0933 8.608 31.496C8.26667 30.856 7.968 30.216 7.712 29.576C7.49867 28.936 7.37067 28.36 7.328 27.848C8.43733 27.08 9.86667 26.3547 11.616 25.672C13.408 24.9467 15.3493 24.328 17.44 23.816C19.5307 23.304 21.664 22.8987 23.84 22.6C26.0587 22.3013 28.1707 22.152 30.176 22.152C35.296 22.152 39.3067 23.176 42.208 25.224C45.1093 27.272 46.56 30.1093 46.56 33.736ZM22.176 49.032C21.3653 48.648 20.6187 48.072 19.936 47.304C18.9547 49.48 18.016 51.6133 17.12 53.704C16.2667 55.7947 15.4987 57.736 14.816 59.528C14.1333 61.32 13.5787 62.8773 13.152 64.2C12.7253 65.5227 12.4907 66.4827 12.448 67.08C13.0453 67.4213 13.7493 67.6773 14.56 67.848C15.4133 68.0187 16.4587 68.104 17.696 68.104C20.5973 68.104 23.3707 67.6987 26.016 66.888C28.6613 66.0773 30.9867 64.9893 32.992 63.624C34.9973 62.216 36.5973 60.616 37.792 58.824C38.9867 57.032 39.584 55.1547 39.584 53.192C39.584 50.376 38.368 48.3493 35.936 47.112C32.608 48.4773 28.8533 49.16 24.672 49.16C24.0747 49.16 23.6053 49.16 23.264 49.16C22.9653 49.16 22.6027 49.1173 22.176 49.032ZM34.592 26.824C33.696 26.824 32.736 26.888 31.712 27.016C30.7307 27.1013 29.6853 27.2507 28.576 27.464C28.7467 27.6347 28.8747 27.8267 28.96 28.04C29.088 28.2107 29.1947 28.4027 29.28 28.616C28.896 29.128 28.4267 29.8747 27.872 30.856C27.3173 31.8373 26.6987 32.9893 26.016 34.312C25.3333 35.592 24.608 37.0213 23.84 38.6C23.1147 40.1787 22.368 41.8 21.6 43.464C22.3253 43.2933 23.2 43.1653 24.224 43.08C25.2907 42.952 26.336 42.888 27.36 42.888C27.9147 42.888 28.448 42.9093 28.96 42.952C29.5147 42.9947 30.048 43.0587 30.56 43.144C32.608 42.8027 34.4427 42.312 36.064 41.672C37.728 40.9893 39.1573 40.2213 40.352 39.368C41.5467 38.472 42.464 37.4907 43.104 36.424C43.744 35.3573 44.064 34.2267 44.064 33.032C44.064 30.984 43.2533 29.448 41.632 28.424C40.0107 27.3573 37.664 26.824 34.592 26.824Z" fill="white"/>
</svg>
