<svg width="38" height="93" viewBox="0 0 38 93" fill="none" xmlns="http://www.w3.org/2000/svg">
<path d="M33.272 65.352C34.3387 67.1867 34.872 68.9573 34.872 70.664C34.872 71.048 34.8293 71.3893 34.744 71.688C34.7013 72.0293 34.6373 72.3707 34.552 72.712C33.8267 72.6267 33.0587 72.5627 32.248 72.52C31.48 72.4773 30.6693 72.456 29.816 72.456C28.792 72.456 27.7467 72.4773 26.68 72.52C25.656 72.6053 24.504 72.712 23.224 72.84C21.944 72.968 20.5147 73.1387 18.936 73.352C17.3573 73.5653 15.5227 73.8427 13.432 74.184C12.4507 73.8427 11.4693 73.16 10.488 72.136C9.50667 71.1547 8.58933 69.96 7.736 68.552C8.16267 67.6133 8.696 66.4613 9.336 65.096C9.976 63.688 10.7227 62.0027 11.576 60.04C12.4293 58.0347 13.368 55.7093 14.392 53.064C15.4587 50.376 16.5893 47.2827 17.784 43.784C18.552 41.48 19.2133 39.4533 19.768 37.704C20.3227 35.9547 20.8133 34.2693 21.24 32.648C21.7093 30.984 22.1573 29.256 22.584 27.464C23.0107 25.672 23.48 23.6027 23.992 21.256C25.6987 21.5973 27.1707 22.2373 28.408 23.176C29.688 24.072 30.904 25.3733 32.056 27.08C31.7147 27.6347 31.2667 28.5307 30.712 29.768C30.1573 31.0053 29.496 32.52 28.728 34.312C28.0027 36.0613 27.192 38.0667 26.296 40.328C25.4 42.5467 24.4613 44.936 23.48 47.496C22.5413 50.0133 21.624 52.3813 20.728 54.6C19.832 56.8187 19.0213 58.824 18.296 60.616C17.6133 62.408 17.0587 63.944 16.632 65.224C16.2053 66.504 15.992 67.464 15.992 68.104C16.6747 68.0613 17.2933 68.0187 17.848 67.976C18.4027 67.9333 18.9787 67.8693 19.576 67.784C20.1733 67.656 20.8133 67.528 21.496 67.4C22.2213 67.2293 23.0747 67.016 24.056 66.76C24.9093 66.5467 25.6987 66.376 26.424 66.248C27.1493 66.0773 27.8533 65.9493 28.536 65.864C29.2613 65.736 29.9867 65.6507 30.712 65.608C31.48 65.5227 32.3333 65.4373 33.272 65.352Z" fill="white"/>
</svg>
