<svg width="50" height="118" viewBox="0 0 50 118" fill="none" xmlns="http://www.w3.org/2000/svg">
<path d="M23.872 9.008C24.2133 8.92266 24.512 8.88 24.768 8.88C25.1093 8.88 25.3867 8.944 25.6 9.072C25.9413 9.28533 26.112 9.54133 26.112 9.84C26.112 10.1387 25.984 10.5013 25.728 10.928C25.3013 11.6107 24.4267 12.3573 23.104 13.168C22.08 13.7653 21.056 14.4693 20.032 15.28C18.496 16.688 17.3653 17.8187 16.64 18.672C14.08 21.8293 12.352 25.2213 11.456 28.848C10.0907 34.2667 10.368 39.1093 12.288 43.376C13.3973 45.7653 14.976 47.5573 17.024 48.752C17.1947 48.8373 17.344 48.9227 17.472 49.008C20.0747 50.288 22.7413 50.6933 25.472 50.224C29.3973 49.6267 32.9387 47.536 36.096 43.952C38.9973 40.752 40.96 36.976 41.984 32.624C43.3493 26.6507 43.008 21.808 40.96 18.096C40.576 17.328 40.1067 16.6667 39.552 16.112C38.6987 15.344 37.696 14.7467 36.544 14.32C34.9653 13.8933 33.6427 13.7867 32.576 14C31.808 14.2133 30.912 14.832 29.888 15.856C28.352 17.52 26.9227 19.824 25.6 22.768C25.088 23.8773 24.5547 24.688 24 25.2C22.592 26.3947 21.1627 26.992 19.712 26.992C19.328 26.992 19.0507 26.928 18.88 26.8C18.5387 26.5867 18.368 26.2667 18.368 25.84C18.5813 24.9013 19.3707 23.216 20.736 20.784C20.7787 20.6987 20.8213 20.6133 20.864 20.528C22.4 18.0107 23.9573 16.0267 25.536 14.576C28.7787 11.4613 32.2987 9.60533 36.096 9.008C37.376 8.83733 38.8053 8.83733 40.384 9.008C40.4693 9.008 40.5547 9.008 40.64 9.008C43.456 9.56266 45.6533 10.992 47.232 13.296C48.4267 15.1733 49.216 17.5627 49.6 20.464C49.7707 21.7013 49.792 23.408 49.664 25.584C49.6213 25.7973 49.6 25.968 49.6 26.096C49.344 28.4853 48.9173 30.576 48.32 32.368C46.5707 38.0853 43.2853 43.056 38.464 47.28C38.208 47.536 37.9307 47.7707 37.632 47.984C31.6587 52.9333 25.408 55.408 18.88 55.408C15.7653 55.408 13.0133 54.64 10.624 53.104C7.12533 50.8853 4.928 47.3653 4.032 42.544C3.17867 38.1493 3.54133 33.6907 5.12 29.168C5.888 26.8213 7.104 24.3253 8.768 21.68C11.6693 17.4133 15.4027 13.808 19.968 10.864C21.7173 9.79733 23.0187 9.17866 23.872 9.008Z" fill="white"/>
</svg>
