<svg width="627" height="310" viewBox="0 0 627 310" fill="none" xmlns="http://www.w3.org/2000/svg">
<path d="M57.1929 114.589C57.1929 114.214 57.1929 113.839 57.1929 101.652C57.1929 89.4647 57.1929 65.4765 57.0055 52.5568C56.8017 38.5028 55.6823 36.2296 54.5522 34.7133C51.9763 31.2572 45.8576 38.8533 37.5379 46.5995C32.6666 51.1349 27.6848 53.6188 23.1359 56.6514C18.587 59.6839 15.5544 62.3304 13.8564 63.4718C9.51675 66.3891 6.85416 55.5496 2.12354 51.0007C1.04855 49.967 0.788972 48.7348 1.15811 47.9681C3.07124 43.9947 9.4665 43.4193 14.0154 41.7155C19.0371 39.8348 24.5954 33.6059 29.9166 30.3575C34.6707 27.4553 38.9974 24.1106 43.7337 21.4642C49.3797 18.3094 58.2606 12.0257 65.1265 8.77728C69.8032 6.56465 74.2072 4.80197 83.0665 3.47308C109.513 -0.493927 115.096 6.30123 119.645 8.00493C124.49 9.81955 128.726 12.7299 133.275 14.8197C138.147 17.0584 142.355 20.6805 145.592 23.7131C149.306 27.1917 127.726 27.1318 118.168 26.1891C111.357 25.5173 94.8107 24.8602 85.4119 28.0632C84.1386 28.4971 83.3391 29.7669 82.1976 30.5279C79.9317 32.0385 78.7732 44.8049 78.9606 63.7274C79.1116 78.9759 80.6586 91.8499 81.2322 102.998C81.4203 106.654 82.5554 108.898 83.6855 110.415C86.4333 114.101 93.5159 108.16 99.7571 107.399C110.993 106.029 120.775 104.753 127.209 103.236C132.853 101.906 138.948 101.345 169.899 100.397C175.727 100.218 174.953 98.7101 174.379 97.5686C172.133 93.0977 170.024 87.7383 168.695 82.8032C167.503 78.3767 166.616 72.9728 164.345 64.0795C162.689 57.5997 163.572 50.643 164.146 44.379C164.376 41.867 165.094 39.637 165.656 37.5585C167.194 31.8741 175.294 29.04 184.744 24.3094C192.198 20.5776 201.031 20.317 207.284 19.1869C213.985 17.9757 228.199 16.9096 237.768 19.1699C243.811 20.5971 247.235 28.2449 251.211 32.7938C254.743 36.8361 254.823 42.6242 255.953 47.5593C258.237 57.536 256.345 73.677 254.828 78.2259C253.221 83.0471 248.78 87.3067 244.43 90.9128C239.368 95.1087 234.401 96.0296 228.54 97.3585C217.628 99.8328 212.821 94.9165 208.272 91.8839C203.723 88.8513 199.941 85.0805 197.283 79.5889C195.191 75.2659 195.761 69.5654 194.818 63.6876C194.003 58.6044 193.489 51.7788 194.994 46.8323C196.326 42.4537 203.689 43.4193 216.722 43.2205C220.765 43.1588 223.758 46.043 226.785 49.4447C230.734 53.8826 231.72 60.0474 231.919 66.4817C232.08 71.6982 226.45 75.9486 223.974 80.4975C221.581 84.8944 221.135 89.5783 221.123 95.0699C221.118 97.7738 223.77 99.8118 225.468 101.516C228.683 104.741 234.355 105.866 240.591 107.581C253.208 111.051 258.207 105.888 262.756 104.185C267.778 102.304 271.087 97.5743 273.932 92.838C277.507 86.8872 278.288 79.4015 279.617 65.1017C280.556 55.0007 279.81 36.2183 283.558 26.5639C287.306 16.9096 294.803 16.9096 299.227 17.097C309.013 17.5116 318.768 19.1812 325.032 20.1239C331.274 21.0633 342.597 22.5886 349.077 23.5314C353.614 24.1913 359.657 25.6099 366.869 26.5583C367.826 26.684 366.904 28.2449 365.955 29.199C362.285 32.891 357.068 34.3101 352.331 37.5301C345.777 41.9863 338.895 44.9185 333.403 47.3775C328.803 49.4375 324.129 51.3472 319.58 52.3069C314.945 53.2849 310.5 55.1407 305.951 58.5425C304.85 59.3659 303.685 59.6839 304.23 59.877C310.836 62.2167 318.019 61.2059 325.021 62.1486C337.23 63.7924 347.163 64.2272 366.444 64.9881C369.57 65.1115 368.426 66.1126 365.223 67.998C346.237 79.1739 333.216 87.3067 328.667 89.9701C323.306 93.109 310.204 102.776 300.465 109.654C299.208 110.541 298.006 110.795 298.551 111.176C300.924 112.832 305.536 112.317 317.371 111.193C345.4 108.53 366.858 105.502 372.901 105.315C385.062 104.938 397.116 103.617 416.038 103.043C427.08 102.709 436.54 101.72 437.681 101.34C437.698 101.334 436.574 101.709 435.432 102.277C434.291 102.844 433.166 103.594 433.899 98.9202C436.248 83.9335 439.958 71.4509 440.146 67.4812C440.778 54.0885 439.595 30.5847 437.318 24.3151C434.481 16.5064 427.51 10.1402 422.745 4.62024C420.992 2.5891 418.389 1.76938 415.749 1.20147C412.429 0.487505 409.303 1.75802 407.412 3.64345C403.079 7.96344 402.863 15.3649 401.534 21.6175C400.153 28.1137 402.477 34.2874 404.737 40.1709C407.779 48.0899 411.927 53.9822 417.032 61.7454C422.186 69.5818 433.121 74.0632 439.555 76.721C445.544 79.1946 464.81 78.243 475.339 76.738C482.685 75.688 486.504 66.158 492.37 59.9054C498.615 53.2491 501.655 48.7348 504.5 43.4363C506.683 39.3719 505.835 27.9723 505.46 16.2281C505.348 12.7116 504.336 14.2291 503.949 33.5548C503.563 52.8805 503.563 89.9872 503.938 108.54C504.313 127.094 505.063 125.969 503.387 117.519C498.549 93.1162 492.217 74.1086 490.138 67.8788C483.025 46.5599 476.69 20.3397 475.924 15.9783C475.746 14.9707 477.417 14.2746 478.746 14.0758C485.059 13.1316 494.795 18.4089 503.535 21.2541C511.011 23.688 519.419 25.6099 527.387 26.1835C534.637 26.7054 542.885 26.3822 548.223 22.4183C551.326 20.1138 553.527 16.1714 555.793 13.1444C558.751 9.1937 567.872 9.73135 576.226 7.82888C579.981 6.97369 583.058 6.31259 584.574 6.30691C589.161 6.28973 583.069 16.8869 580.809 22.5602C579.925 24.7808 579.299 28.1995 572.166 46.4291C565.033 64.6588 551.54 97.6425 541.59 119.319C531.64 140.996 525.643 150.366 518.993 159.317C505.854 177 494.886 187.632 488.094 193.107C480.193 199.474 470.67 204.294 461.232 208.451C451.4 212.781 438.891 214.153 408.803 214.539C385.462 214.839 345.732 212.677 308.586 208.531C271.439 204.385 238.081 197.639 216.211 192.289C194.341 186.939 184.971 183.191 176.77 179.386C161.579 172.337 149.25 163.474 138.295 153.66C117.809 135.309 114.755 120.313 110.78 112.345C107.183 105.137 103.397 99.0963 99.99 93.9738C95.7542 87.606 90.1426 86.5797 88.4389 86.381C81.4852 85.5697 92.0166 102.436 95.7875 113.572C101.484 130.395 104.136 145.596 105.641 157.834C110.196 194.882 111.325 202.386 111.899 209.593C112.444 216.446 113.597 224.739 114.358 248.903C114.493 253.182 115.482 252.043 116.056 250.715C118.64 244.728 128.68 238.05 147.603 229.901C163.717 222.961 175.271 225.148 196.437 225.324C206.5 225.407 210.504 230.804 215.052 232.894C217.434 233.988 219.601 235.733 221.492 237.431C222.4 238.246 222.634 239.504 224.139 236.148C233.551 215.156 238.126 206.998 243.635 202.062C250.625 195.8 261.978 191.46 269.56 187.484C276.251 183.976 283.922 179.738 289.078 175.371C290.1 174.506 288.533 172.174 287.21 170.646C284.49 167.506 278.708 165.336 268.725 162.502C252.814 157.986 237.081 158.885 226.882 159.822C210.301 161.345 205.256 170.97 195.233 185.321C182.575 203.442 185.539 223.205 186.288 230.577C186.626 233.893 188.537 236.074 190.996 237.795C204.553 247.281 225.246 240.299 235.281 235.199C249.787 227.827 253.664 218.742 257.838 213.233C262.569 206.989 262.773 193.777 262.961 185.627C262.975 185 268.407 197.4 278.408 217.606C288.661 238.322 298.721 249.726 303.435 254.633C314.008 265.639 322.176 266.4 328.814 266.599C332.44 266.707 336.203 264.901 339.979 262.828C344.317 260.447 347.186 255.076 351.144 246.041C358.179 229.984 361.202 212.336 362.338 198.178C363.56 182.94 363.099 171.413 363.479 164.428C364.441 146.76 357.817 130.149 354.029 118.229C353.239 115.743 352.888 114.611 352.695 114.594C351.575 114.496 352.127 119.109 351.371 140.882C350.694 160.399 350.616 197.139 350.423 215.312C350.23 233.484 350.23 231.985 350.043 230.276C348.784 218.794 349.844 204.34 353.989 197.349C363.084 182.012 376.671 176.717 391.993 169.891C404.442 164.345 415.698 163.053 423.989 162.485C436.75 161.611 446.376 163.417 450.152 166.058C458.498 171.893 461.902 180.806 465.503 200.643C466.63 206.855 464.583 212.234 461.561 218.094C457.435 226.098 447.205 230.032 438.096 233.837C429.474 237.438 417.288 240.277 411.206 241.793C407.835 242.633 403.635 242.934 399.478 242.372C392.482 241.426 388.12 235.006 382.998 230.458C376.478 224.668 368.812 217.969 363.877 213.983C360.336 211.122 354.046 215.675 349.486 215.482C340.894 215.118 366.79 243.593 383.287 256.519C388.367 260.498 396.639 264.424 405.754 268.24C414.868 272.056 424.988 275.055 438.823 277.162C452.657 279.269 469.898 280.393 481.404 280.785C498.147 281.355 511.809 277.792 525.615 273.067C534.074 270.172 541.374 264.174 551.193 255.871C561.788 246.913 568.656 236.915 573.943 228.424C580.094 218.548 582.683 209.269 584.194 201.54C586.343 190.543 586.477 173.378 585.54 155.04C584.537 135.423 574.778 130.149 569.457 125.771C564.568 121.747 559.24 118.768 553.749 117.053C552.462 116.651 551.29 116.86 551.273 117.422C551.139 121.846 558.07 121.017 558.837 123.465C560.291 128.107 546.429 139.86 531.311 157.993C518.132 173.801 512.661 184.986 510.583 189.705C504.46 203.605 507.72 222.081 510.554 229.089C514.561 238.998 533.412 244.047 557.219 246.904C571.835 248.658 583.035 245.592 591.707 243.144C615.192 236.516 623.186 233.473 625.27 233.467C629.264 233.457 612.691 253.77 600.141 271.284C595.163 278.23 588.794 286.049 584.029 291.382C578.174 295.533 571.723 301.61 569.457 303.308C568.315 304.256 567.191 305.381 563.761 308.811" stroke="white" stroke-width="2" stroke-linecap="round"/>
</svg>
