<svg width="46" height="93" viewBox="0 0 46 93" fill="none" xmlns="http://www.w3.org/2000/svg">
<path d="M45.2233 25.864C45.3513 26.5893 45.4366 27.1013 45.4793 27.4C45.5646 27.656 45.6073 28.0187 45.6073 28.488C45.6073 29.896 45.2873 31.2187 44.6473 32.456C44.0499 33.6507 43.2179 34.504 42.1513 35.016C41.2979 33.864 40.2526 32.8827 39.0153 32.072C37.7779 31.2187 36.4126 30.536 34.9193 30.024C33.4686 29.4693 31.9539 29.064 30.3753 28.808C28.7966 28.552 27.2606 28.424 25.7673 28.424C24.2739 28.424 22.8659 28.552 21.5433 28.808C20.2633 29.0213 19.1113 29.3413 18.0873 29.768C17.1059 30.152 16.3166 30.6427 15.7193 31.24C15.1646 31.8373 14.8873 32.52 14.8873 33.288C15.0153 34.2267 15.5913 35.1867 16.6153 36.168C17.6393 37.1067 18.8979 38.0453 20.3913 38.984C21.8846 39.88 23.5273 40.776 25.3193 41.672C27.1539 42.568 28.9459 43.4213 30.6953 44.232C32.8713 45.256 34.7486 46.216 36.3273 47.112C37.9059 47.9653 39.2073 48.9253 40.2313 49.992C41.2553 51.016 42.0233 52.1893 42.5353 53.512C43.0473 54.8347 43.3033 56.4347 43.3033 58.312C43.3033 60.488 42.9406 62.536 42.2153 64.456C41.4899 66.3333 40.4233 67.976 39.0153 69.384C37.6499 70.792 35.9859 71.88 34.0233 72.648C32.0606 73.4587 29.8633 73.864 27.4313 73.864C25.0419 73.864 22.4606 73.5013 19.6873 72.776C16.9139 72.0507 14.3113 71.048 11.8793 69.768C9.48992 68.5307 7.48458 67.1013 5.86325 65.48C4.28458 63.816 3.49525 62.0667 3.49525 60.232C3.49525 59.3787 3.72992 58.2907 4.19925 56.968C4.71125 55.6453 5.60725 54.2587 6.88725 52.808C7.01525 54.088 7.69792 55.6027 8.93525 57.352C10.2153 59.1013 12.1139 60.7227 14.6313 62.216C16.9779 63.5813 19.3886 64.584 21.8633 65.224C24.3806 65.8213 26.7273 66.12 28.9033 66.12C31.2926 66.12 33.2339 65.8213 34.7273 65.224C36.2206 64.6267 37.3939 63.9227 38.2473 63.112C39.1006 62.2587 39.6979 61.4053 40.0393 60.552C40.3806 59.6987 40.5726 59.016 40.6153 58.504C40.5726 57.6507 40.1673 56.84 39.3993 56.072C38.6739 55.2613 37.6713 54.4933 36.3913 53.768C35.1539 53 33.7033 52.232 32.0393 51.464C30.3753 50.696 28.6473 49.928 26.8553 49.16C24.1673 47.9653 21.8419 46.856 19.8793 45.832C17.9593 44.7653 16.3593 43.6987 15.0793 42.632C13.8419 41.5227 12.9246 40.3707 12.3273 39.176C11.7726 37.9813 11.4953 36.616 11.4953 35.08C11.4953 32.6907 12.2206 30.4293 13.6713 28.296C15.1219 26.1627 17.2126 24.5413 19.9433 23.432C21.3086 22.8347 22.7593 22.408 24.2953 22.152C25.8739 21.896 27.4099 21.768 28.9033 21.768C31.7193 21.768 34.4713 22.152 37.1593 22.92C39.8473 23.688 42.5353 24.6693 45.2233 25.864Z" fill="white"/>
</svg>
