<svg width="52" height="93" viewBox="0 0 52 93" fill="none" xmlns="http://www.w3.org/2000/svg">
<path d="M19.3235 30.216C17.6168 30.216 16.2942 29.7467 15.3555 28.808C14.4595 27.8267 14.0115 26.6533 14.0115 25.288C14.0115 24.9467 14.0542 24.5413 14.1395 24.072C14.2675 23.6027 14.4168 23.1973 14.5875 22.856C15.1422 23.112 15.9528 23.304 17.0195 23.432C18.1288 23.5173 19.4088 23.56 20.8595 23.56C23.0355 23.56 25.4888 23.4747 28.2195 23.304C30.9928 23.0907 33.6382 22.8773 36.1555 22.664C38.6728 22.4507 40.8915 22.2587 42.8115 22.088C44.7315 21.8747 45.9688 21.768 46.5235 21.768C48.1022 21.768 49.2328 22.3653 49.9155 23.56C50.6408 24.712 51.1742 26.2693 51.5155 28.232C50.4062 28.1467 49.2968 28.0827 48.1875 28.04C47.1208 27.9547 46.2035 27.912 45.4355 27.912C44.0702 27.912 42.6835 27.9547 41.2755 28.04C39.9102 28.1253 38.5235 28.2533 37.1155 28.424C36.5182 29.6613 35.8568 31.1333 35.1315 32.84C34.4062 34.504 33.6808 36.2533 32.9555 38.088C32.2728 39.9227 31.6115 41.7573 30.9715 43.592C30.3315 45.384 29.7768 47.0053 29.3075 48.456C28.3688 51.272 27.5368 53.8747 26.8115 56.264C26.1288 58.6533 25.5102 60.8933 24.9555 62.984C24.4435 65.032 23.9955 66.9947 23.6115 68.872C23.2275 70.7493 22.8862 72.584 22.5875 74.376C19.7288 73.9493 17.3395 72.1573 15.4195 69C15.7608 67.6773 16.1662 66.248 16.6355 64.712C17.1475 63.1333 17.7235 61.3627 18.3635 59.4C19.0462 57.3947 19.8355 55.1333 20.7315 52.616C21.6275 50.0987 22.6515 47.24 23.8035 44.04C24.2302 42.8453 24.6782 41.608 25.1475 40.328C25.6168 39.0053 26.0648 37.704 26.4915 36.424C26.9608 35.144 27.3662 33.9067 27.7075 32.712C28.0915 31.5173 28.4115 30.4293 28.6675 29.448C26.8755 29.6613 25.1688 29.8533 23.5475 30.024C21.9688 30.152 20.5608 30.216 19.3235 30.216Z" fill="white"/>
</svg>
