<svg width="56" height="93" viewBox="0 0 56 93" fill="none" xmlns="http://www.w3.org/2000/svg">
<path d="M17.5643 32.904C17.3936 32.3067 17.2443 31.624 17.1163 30.856C17.0309 30.0453 16.9883 28.872 16.9883 27.336C16.9883 26.3547 17.0096 25.3733 17.0522 24.392C17.0949 23.368 17.2869 22.4933 17.6283 21.768C19.7189 22.152 21.9376 22.5147 24.2843 22.856C26.6736 23.1547 29.1056 23.432 31.5803 23.688C34.0549 23.944 36.5296 24.1573 39.0043 24.328C41.4789 24.456 43.8683 24.52 46.1723 24.52C49.3296 24.52 51.8683 24.392 53.7883 24.136C54.4709 25.0747 54.8976 26.184 55.0683 27.464C55.2389 28.744 55.3243 29.9387 55.3243 31.048C50.4176 33.0533 45.7669 35.6133 41.3723 38.728C36.9776 41.8 32.9883 45.0213 29.4043 48.392C25.8203 51.7627 22.7269 55.0907 20.1243 58.376C17.5216 61.6613 15.5803 64.52 14.3003 66.952C15.0683 66.824 15.8576 66.7173 16.6683 66.632C17.4789 66.504 18.3536 66.3973 19.2923 66.312C20.2309 66.2267 21.2763 66.1413 22.4283 66.056C23.5803 65.9707 24.9029 65.8853 26.3963 65.8C28.4869 65.672 30.3216 65.4587 31.9003 65.16C33.4789 64.8187 34.8229 64.4773 35.9323 64.136C37.0416 63.752 37.9163 63.4107 38.5563 63.112C39.2389 62.7707 39.7296 62.4933 40.0283 62.28C40.1989 62.664 40.3909 63.24 40.6043 64.008C40.8603 64.776 41.0736 65.6293 41.2443 66.568C41.4576 67.464 41.6283 68.3813 41.7563 69.32C41.8843 70.3013 41.9483 71.1973 41.9483 72.008C41.9483 72.4347 41.9269 72.712 41.8843 72.84C41.8843 73.0107 41.8629 73.1813 41.8203 73.352C39.9003 73.224 37.9589 73.0747 35.9963 72.904C34.0763 72.7333 32.1563 72.648 30.2363 72.648C27.6763 72.648 25.0096 72.776 22.2363 73.032C19.5056 73.3307 16.8603 73.7573 14.3003 74.312C11.7829 74.9093 9.45758 75.656 7.32425 76.552C5.23358 77.448 3.54825 78.5147 2.26825 79.752C1.92692 78.6427 1.56425 77.6827 1.18025 76.872C0.838917 76.104 0.66825 75.1653 0.66825 74.056C0.66825 72.9467 0.881583 72.0507 1.30825 71.368C1.77758 70.728 2.39625 70.1947 3.16425 69.768C5.72425 66.0987 8.62558 62.472 11.8683 58.888C15.1536 55.2613 18.6523 51.7627 22.3643 48.392C26.0763 45.0213 29.9163 41.8213 33.8843 38.792C37.8523 35.72 41.8203 32.9253 45.7883 30.408C43.2283 30.28 40.5189 30.216 37.6603 30.216C35.6549 30.216 33.6709 30.2587 31.7083 30.344C29.7456 30.4293 27.8896 30.5787 26.1403 30.792C24.3909 30.9627 22.7696 31.24 21.2763 31.624C19.8256 31.9653 18.5883 32.392 17.5643 32.904Z" fill="white"/>
</svg>
