<svg width="49" height="93" viewBox="0 0 49 93" fill="none" xmlns="http://www.w3.org/2000/svg">
<path d="M32.896 41.736C34.304 41.736 35.392 42.12 36.16 42.888C36.9707 43.656 37.376 44.7227 37.376 46.088C37.376 46.4293 37.3333 46.792 37.248 47.176C37.2053 47.5173 37.1413 47.816 37.056 48.072C36.5013 47.9867 35.8827 47.9227 35.2 47.88C34.5173 47.7947 33.7067 47.752 32.768 47.752C30.9333 47.752 29.0773 47.9227 27.2 48.264C25.3227 48.5627 23.5307 48.8187 21.824 49.032C20.8427 51.2933 19.9467 53.4907 19.136 55.624C18.3253 57.7147 17.6213 59.6347 17.024 61.384C16.4693 63.1333 16.0213 64.648 15.68 65.928C15.3813 67.208 15.2107 68.168 15.168 68.808C18.624 68.0827 22.1013 67.464 25.6 66.952C29.1413 66.44 32.8533 66.056 36.736 65.8C37.2053 66.5253 37.5893 67.3147 37.888 68.168C38.2293 69.0213 38.4 69.9387 38.4 70.92C38.4 71.176 38.4 71.4533 38.4 71.752C38.4 72.0507 38.3573 72.3493 38.272 72.648C37.0773 72.6053 35.8187 72.5627 34.496 72.52C33.1733 72.52 31.4453 72.52 29.312 72.52C27.904 72.52 26.56 72.5413 25.28 72.584C24.0427 72.6693 22.784 72.776 21.504 72.904C20.224 73.032 18.8587 73.2027 17.408 73.416C16 73.6293 14.4 73.8853 12.608 74.184C10.6453 73.416 8.74667 71.5387 6.912 68.552C7.63733 67.016 8.64 64.6907 9.92 61.576C11.2427 58.4187 12.9067 54.216 14.912 48.968C12.992 48.3707 11.7333 47.304 11.136 45.768C11.3493 45.5547 11.968 45.2987 12.992 45C14.016 44.6587 15.2747 44.3173 16.768 43.976C17.408 42.312 17.9413 40.8613 18.368 39.624C18.8373 38.3867 19.2427 37.2347 19.584 36.168C19.9253 35.0587 20.224 33.992 20.48 32.968C20.7787 31.9013 21.056 30.7493 21.312 29.512C19.8187 29.4267 18.6453 29.0213 17.792 28.296C16.9387 27.528 16.512 26.5467 16.512 25.352C16.512 25.0107 16.5547 24.6053 16.64 24.136C16.768 23.6667 16.896 23.2613 17.024 22.92C17.8773 23.048 18.688 23.1333 19.456 23.176C20.2667 23.2187 21.312 23.24 22.592 23.24C25.28 23.24 27.7973 23.176 30.144 23.048C32.4907 22.8773 34.6027 22.7067 36.48 22.536C38.4 22.3653 40.0427 22.216 41.408 22.088C42.7733 21.9173 43.8187 21.832 44.544 21.832C45.5253 21.832 46.4 22.344 47.168 23.368C47.936 24.392 48.512 25.8427 48.896 27.72C47.5733 27.592 46.4853 27.5067 45.632 27.464C44.8213 27.4213 44.096 27.4 43.456 27.4C41.1093 27.4 38.9547 27.528 36.992 27.784C35.072 27.9973 33.216 28.232 31.424 28.488C31.168 28.872 30.8693 29.3627 30.528 29.96C30.2293 30.5573 29.824 31.3893 29.312 32.456C28.8 33.5227 28.16 34.8667 27.392 36.488C26.6667 38.1093 25.7707 40.136 24.704 42.568C26.3253 42.312 27.84 42.12 29.248 41.992C30.6987 41.8213 31.9147 41.736 32.896 41.736Z" fill="white"/>
</svg>
