<svg width="48" height="93" viewBox="0 0 48 93" fill="none" xmlns="http://www.w3.org/2000/svg">
<path d="M47.359 33.736C47.359 35.784 46.8897 37.7253 45.951 39.56C45.055 41.352 43.7963 42.9733 42.175 44.424C40.5537 45.832 38.655 47.0267 36.479 48.008C34.303 48.9893 31.935 49.6507 29.375 49.992C30.015 51.912 30.783 53.896 31.679 55.944C32.6177 57.9493 33.6203 59.8907 34.687 61.768C35.7537 63.6453 36.863 65.3733 38.015 66.952C39.167 68.5307 40.2977 69.832 41.407 70.856C41.1937 71.2827 40.8737 71.7093 40.447 72.136C40.063 72.5627 39.5937 72.9467 39.039 73.288C38.527 73.672 37.9723 73.9707 37.375 74.184C36.8203 74.44 36.287 74.568 35.775 74.568C34.8363 74.568 33.9403 74.12 33.087 73.224C32.2337 72.328 31.359 70.92 30.463 69C29.6097 67.0373 28.6923 64.52 27.711 61.448C26.7723 58.3333 25.727 54.6 24.575 50.248C24.1057 50.248 23.6363 50.248 23.167 50.248C22.6977 50.248 22.335 50.2053 22.079 50.12C21.7803 49.9493 21.4603 49.6507 21.119 49.224C19.967 51.6987 18.943 54.024 18.047 56.2C17.151 58.376 16.3403 60.488 15.615 62.536C14.9323 64.5413 14.3137 66.504 13.759 68.424C13.247 70.3013 12.799 72.2213 12.415 74.184C10.9643 73.8427 9.70567 73.224 8.639 72.328C7.57233 71.432 6.56967 70.1733 5.631 68.552C5.80167 68.168 5.97233 67.8053 6.143 67.464C6.35633 67.08 6.61233 66.568 6.911 65.928C7.20967 65.2453 7.57233 64.392 7.999 63.368C8.46833 62.344 9.06567 60.9787 9.791 59.272C10.559 57.5653 11.455 55.4747 12.479 53C13.5457 50.5253 14.8257 47.5173 16.319 43.976C17.0017 42.3973 17.5777 41.0107 18.047 39.816C18.559 38.6213 19.007 37.4907 19.391 36.424C19.775 35.3147 20.1163 34.2267 20.415 33.16C20.7563 32.0507 21.0977 30.792 21.439 29.384C19.4763 30.0667 17.6417 30.8347 15.935 31.688C14.271 32.4987 12.8843 33.3733 11.775 34.312C11.391 34.056 10.9857 33.672 10.559 33.16C10.175 32.648 9.81233 32.0933 9.471 31.496C9.12967 30.856 8.831 30.216 8.575 29.576C8.319 28.936 8.16967 28.36 8.127 27.848C9.407 26.9947 10.9643 26.2053 12.799 25.48C14.6763 24.7547 16.6603 24.136 18.751 23.624C20.8417 23.0693 22.975 22.6427 25.151 22.344C27.327 22.0453 29.3537 21.896 31.231 21.896C36.351 21.896 40.319 22.9627 43.135 25.096C45.951 27.1867 47.359 30.0667 47.359 33.736ZM31.743 28.36C31.4443 28.744 30.975 29.512 30.335 30.664C29.695 31.816 28.9483 33.2027 28.095 34.824C27.2843 36.4027 26.4097 38.1307 25.471 40.008C24.575 41.8853 23.7003 43.7413 22.847 45.576C26.047 45.576 28.991 45.2773 31.679 44.68C34.367 44.0827 36.6923 43.2507 38.655 42.184C40.6177 41.0747 42.1323 39.7947 43.199 38.344C44.3083 36.8507 44.863 35.208 44.863 33.416C44.863 31.2827 44.095 29.6613 42.559 28.552C41.023 27.4 38.655 26.824 35.455 26.824C34.7297 26.824 34.0043 26.8667 33.279 26.952C32.5537 26.9947 31.7857 27.0587 30.975 27.144L31.743 28.36Z" fill="white"/>
</svg>
