<svg width="58" height="81" viewBox="0 0 58 81" fill="none" xmlns="http://www.w3.org/2000/svg">
<path d="M7.83925 66.688C5.32192 66.688 3.31658 65.728 1.82325 63.808C1.69525 63.68 1.63125 63.5307 1.63125 63.36C1.63125 62.976 1.88725 62.72 2.39925 62.592C2.44192 62.592 2.46325 62.592 2.46325 62.592C2.54858 62.5493 2.59125 62.528 2.59125 62.528C2.63392 62.528 2.59125 62.5493 2.46325 62.592C2.59125 62.5493 2.71925 62.528 2.84725 62.528L2.46325 62.592H2.39925C2.27125 62.6347 2.20725 62.72 2.20725 62.848C2.20725 63.1467 2.74058 63.5733 3.80725 64.128C4.91658 64.7253 6.34592 65.024 8.09525 65.024C9.67392 65.024 11.4019 64.64 13.2793 63.872C15.1993 63.104 17.1406 61.696 19.1033 59.648C21.1086 57.6 23.0286 54.7413 24.8633 51.072C26.6979 47.36 28.3193 42.6027 29.7273 36.8C31.1779 30.9547 32.2659 23.8507 32.9913 15.488C29.3646 15.9573 25.7379 16.704 22.1113 17.728C18.4846 18.7093 15.1993 19.968 12.2553 21.504C9.31125 22.9973 6.94325 24.704 5.15125 26.624C3.35925 28.5013 2.46325 30.5707 2.46325 32.832C2.46325 33.088 2.46325 33.344 2.46325 33.6C2.50592 33.856 2.54858 34.112 2.59125 34.368C2.80458 35.3067 3.08192 36.1387 3.42325 36.864C3.80725 37.5893 4.34058 38.1653 5.02325 38.592C5.40725 38.848 5.59925 39.0827 5.59925 39.296C5.59925 39.552 5.42858 39.68 5.08725 39.68C4.78858 39.68 4.48992 39.5947 4.19125 39.424C3.16725 38.784 2.42058 37.9733 1.95125 36.992C1.52458 36.0107 1.20458 35.0293 0.99125 34.048C0.86325 33.4507 0.79925 32.8747 0.79925 32.32C0.79925 30.3573 1.37525 28.544 2.52725 26.88C3.72192 25.1733 5.25792 23.6373 7.13525 22.272C9.05525 20.864 11.1459 19.6267 13.4073 18.56C15.7113 17.4933 17.9726 16.5973 20.1913 15.872C22.4526 15.1467 24.5006 14.6133 26.3353 14.272C27.3166 14.0587 28.3833 13.8667 29.5353 13.696C30.6873 13.5253 31.9033 13.376 33.1833 13.248C33.2259 12.6507 33.2686 12.0533 33.3113 11.456C33.3539 10.8587 33.3966 10.2613 33.4393 9.664C33.4819 9.152 33.6526 8.768 33.9513 8.512C34.2499 8.256 34.5699 8.128 34.9113 8.128C35.2526 8.128 35.5726 8.256 35.8713 8.512C36.2126 8.768 36.3833 9.152 36.3833 9.664C36.3833 10.2187 36.3619 10.7733 36.3193 11.328C36.3193 11.8827 36.2979 12.4373 36.2553 12.992C36.8953 12.9493 37.5353 12.928 38.1753 12.928C38.8153 12.8853 39.4766 12.864 40.1593 12.864C42.5913 12.864 44.9379 13.056 47.1993 13.44C49.5033 13.7813 51.5299 14.3787 53.2793 15.232C55.0713 16.0853 56.3939 17.2587 57.2473 18.752C57.4179 18.9653 57.5033 19.2 57.5033 19.456C57.5033 19.7973 57.3753 19.968 57.1193 19.968C56.8206 19.968 56.5433 19.7547 56.2873 19.328C55.3913 17.792 53.5993 16.6613 50.9113 15.936C48.2659 15.2107 45.1726 14.848 41.6313 14.848C40.7353 14.848 39.8179 14.8693 38.8793 14.912C37.9833 14.9547 37.0659 15.0187 36.1273 15.104C35.6579 22.1867 34.6979 28.5013 33.2473 34.048C31.8393 39.5947 30.1113 44.416 28.0633 48.512C26.0153 52.608 23.8179 56 21.4713 58.688C19.1246 61.376 16.7566 63.3813 14.3673 64.704C12.0206 66.0267 9.84458 66.688 7.83925 66.688Z" fill="white"/>
</svg>
