<svg width="52" height="52" viewBox="0 0 52 52" fill="none" xmlns="http://www.w3.org/2000/svg">
<path d="M48.752 1.24C49.648 1.02666 50.3093 1.02666 50.736 1.24C51.2907 1.496 51.376 2.05066 50.992 2.904C50.2667 4.61066 48.6667 6.06133 46.192 7.256C45.3813 7.64 44.592 7.93866 43.824 8.152C42.7147 8.408 40.56 8.55733 37.36 8.6H35.568H29.488L26.032 22.232L22.384 36.888C21.6587 39.4053 20.8267 41.7733 19.888 43.992C19.0347 46.0827 18.48 47.384 18.224 47.896C17.4133 49.176 16.0267 50.2 14.064 50.968C13.7653 51.0533 13.488 51.1387 13.232 51.224C12.2933 51.4373 11.632 51.4373 11.248 51.224C10.9067 51.0533 10.736 50.776 10.736 50.392C10.7787 50.264 11.0133 49.688 11.44 48.664C12.9333 45.336 14.0853 42.1147 14.896 39C15.1947 38.104 16.4533 33.0693 18.672 23.896C20.976 14.7227 22.2133 9.944 22.384 9.56C22.4267 9.34666 22.576 9.13333 22.832 8.92L23.088 8.6H16.752C12.4853 8.64266 10.2453 8.68533 10.032 8.728C9.56267 8.89866 9.15733 9.176 8.816 9.56C8.21867 10.4133 7.92 11.3307 7.92 12.312C7.92 12.568 7.83467 12.8667 7.664 13.208C7.57867 13.4213 7.30133 13.8053 6.832 14.36C5.808 15.3413 4.57067 16.088 3.12 16.6C2.77867 16.728 2.30933 16.8133 1.712 16.856C1.15733 16.856 0.816 16.8133 0.688 16.728C0.261333 16.5147 0.112 15.8747 0.24 14.808C0.666667 12.0347 2.50133 9.47467 5.744 7.128C6.68267 6.44533 7.70667 5.82666 8.816 5.272C10.736 4.29067 12.6773 3.672 14.64 3.416C15.1093 3.33066 20.2933 3.288 30.192 3.288H44.912L45.488 2.904C46.4267 2.17867 47.5147 1.624 48.752 1.24Z" fill="white"/>
</svg>
